<svg width="60" height="61" viewBox="0 0 60 61" fill="none" xmlns="http://www.w3.org/2000/svg">
<rect width="60" height="60" transform="translate(0 0.678955)" fill="#0E1011"/>
<path d="M30.0008 27.1789C29.0726 27.1789 28.1823 27.5476 27.526 28.204C26.8696 28.8604 26.5008 29.7506 26.5008 30.6789C26.5008 31.6071 26.8696 32.4974 27.526 33.1537C28.1823 33.8101 29.0726 34.1789 30.0008 34.1789C30.9291 34.1789 31.8193 33.8101 32.4757 33.1537C33.1321 32.4974 33.5008 31.6071 33.5008 30.6789C33.5008 29.7506 33.1321 28.8604 32.4757 28.204C31.8193 27.5476 30.9291 27.1789 30.0008 27.1789ZM30.0008 24.8455C31.5479 24.8455 33.0317 25.4601 34.1256 26.5541C35.2196 27.648 35.8342 29.1318 35.8342 30.6789C35.8342 32.226 35.2196 33.7097 34.1256 34.8037C33.0317 35.8976 31.5479 36.5122 30.0008 36.5122C28.4537 36.5122 26.97 35.8976 25.8761 34.8037C24.7821 33.7097 24.1675 32.226 24.1675 30.6789C24.1675 29.1318 24.7821 27.648 25.8761 26.5541C26.97 25.4601 28.4537 24.8455 30.0008 24.8455ZM37.5842 24.5539C37.5842 24.9406 37.4305 25.3116 37.157 25.5851C36.8835 25.8586 36.5126 26.0122 36.1258 26.0122C35.7391 26.0122 35.3681 25.8586 35.0946 25.5851C34.8212 25.3116 34.6675 24.9406 34.6675 24.5539C34.6675 24.1671 34.8212 23.7962 35.0946 23.5227C35.3681 23.2492 35.7391 23.0955 36.1258 23.0955C36.5126 23.0955 36.8835 23.2492 37.157 23.5227C37.4305 23.7962 37.5842 24.1671 37.5842 24.5539ZM30.0008 21.3455C27.1145 21.3455 26.6432 21.3537 25.3003 21.4132C24.3857 21.4564 23.772 21.5789 23.2027 21.8005C22.7265 21.976 22.2958 22.2563 21.9427 22.6207C21.5778 22.9738 21.2971 23.4044 21.1213 23.8807C20.8997 24.4524 20.7772 25.0649 20.7352 25.9784C20.6745 27.2664 20.6663 27.7167 20.6663 30.6789C20.6663 33.5664 20.6745 34.0365 20.734 35.3794C20.7772 36.2929 20.8997 36.9077 21.1202 37.4759C21.3185 37.9834 21.5518 38.3485 21.9392 38.7359C22.3323 39.1279 22.6975 39.3624 23.1992 39.556C23.7755 39.7789 24.3892 39.9025 25.2992 39.9445C26.5872 40.0052 27.0375 40.0122 29.9997 40.0122C32.8872 40.0122 33.3573 40.004 34.7002 39.9445C35.6125 39.9014 36.2262 39.7789 36.7967 39.5584C37.2729 39.3829 37.7035 39.1026 38.0567 38.7382C38.4498 38.3462 38.6843 37.981 38.878 37.4782C39.0997 36.9042 39.2233 36.2905 39.2653 35.3782C39.326 34.0914 39.333 33.6399 39.333 30.6789C39.333 27.7925 39.3248 27.3212 39.2653 25.9784C39.2222 25.066 39.0985 24.45 38.878 23.8807C38.7026 23.4045 38.4223 22.9739 38.0578 22.6207C37.7048 22.2559 37.2741 21.9751 36.7978 21.7994C36.2262 21.5777 35.6125 21.4552 34.7002 21.4132C33.4133 21.3525 32.963 21.3455 29.9997 21.3455M29.9997 19.0122C33.1695 19.0122 33.565 19.0239 34.8098 19.0822C36.0512 19.1405 36.8982 19.3354 37.6413 19.6247C38.4113 19.921 39.06 20.3224 39.7087 20.9699C40.3022 21.5529 40.7612 22.2584 41.0538 23.0372C41.342 23.7804 41.538 24.6274 41.5963 25.8699C41.6512 27.1135 41.6663 27.509 41.6663 30.6789C41.6663 33.8487 41.6547 34.2442 41.5963 35.4879C41.538 36.7315 41.342 37.5762 41.0538 38.3205C40.7612 39.0993 40.3022 39.8049 39.7087 40.3879C39.1257 40.9813 38.4201 41.4404 37.6413 41.733C36.8982 42.0212 36.0512 42.2172 34.8098 42.2755C33.565 42.3304 33.1695 42.3455 29.9997 42.3455C26.8298 42.3455 26.4343 42.3339 25.1895 42.2755C23.9482 42.2172 23.1023 42.0212 22.358 41.733C21.5792 41.4404 20.8737 40.9813 20.2907 40.3879C19.6972 39.8049 19.2381 39.0993 18.9455 38.3205C18.6562 37.5774 18.4613 36.7304 18.403 35.4879C18.347 34.2442 18.333 33.8487 18.333 30.6789C18.333 27.509 18.3447 27.1135 18.403 25.8699C18.4613 24.6262 18.6562 23.7815 18.9455 23.0372C19.2381 22.2584 19.6972 21.5529 20.2907 20.9699C20.8737 20.3764 21.5792 19.9173 22.358 19.6247C23.1012 19.3354 23.947 19.1405 25.1895 19.0822C26.4355 19.0274 26.831 19.0122 30.0008 19.0122" fill="white"/>
</svg>
