<svg width="75" height="37" viewBox="0 0 75 37" fill="none" xmlns="http://www.w3.org/2000/svg">
<path d="M64.9504 35.651C62.2466 35.651 60.1771 34.8373 58.742 33.2099C57.3196 31.5697 56.6084 29.2055 56.6084 26.1173V10.0483C56.6084 7.15231 57.3132 4.95468 58.7227 3.45543C60.1451 1.95617 62.221 1.20654 64.9504 1.20654C67.6798 1.20654 69.7493 1.95617 71.1589 3.45543C72.5812 4.95468 73.2924 7.15231 73.2924 10.0483V26.1173C73.2924 29.2055 72.5748 31.5697 71.1396 33.2099C69.7173 34.8373 67.6542 35.651 64.9504 35.651ZM65.0081 29.4233C66.0332 29.4233 66.5458 28.4302 66.5458 26.444V9.93298C66.5458 8.26714 66.046 7.43422 65.0465 7.43422C63.9189 7.43422 63.3551 8.28636 63.3551 9.99065V26.4825C63.3551 27.5332 63.4832 28.2893 63.7395 28.7506C63.9958 29.1991 64.4186 29.4233 65.0081 29.4233Z" fill="white"/>
<path d="M45.9985 35.6506C44.4736 35.6506 43.0833 35.3559 41.8275 34.7664C40.5717 34.177 39.5722 33.3056 38.829 32.1523C38.0986 30.9862 37.7334 29.5574 37.7334 27.866V19.3894H44.4224V27.4623C44.4224 28.0518 44.5377 28.5259 44.7684 28.8847C45.0118 29.2435 45.3963 29.4229 45.9216 29.4229C46.934 29.4229 47.4401 28.8014 47.4401 27.5584V1.51367H54.2637V26.8857C54.2637 28.6797 53.9113 30.2366 53.2065 31.5565C52.5017 32.8635 51.5278 33.8758 50.2849 34.5934C49.0419 35.2982 47.6131 35.6506 45.9985 35.6506Z" fill="white"/>
<path d="M18.4731 35.343L21.7408 1.51367H33.2158L36.4258 35.343H30.0251L29.5446 29.8842H25.4697L25.0468 35.343H18.4731ZM25.9502 24.483H29.0256L27.5456 7.28004H27.238L25.9502 24.483Z" fill="white"/>
<path d="M0.790039 35.343V1.51367H7.47903V15.0646L10.6313 1.51367H17.4356L13.649 17.006L18.2237 35.343H11.2079L7.51747 18.9666V35.343H0.790039Z" fill="white"/>
</svg>
