<svg width="60" height="61" viewBox="0 0 60 61" fill="none" xmlns="http://www.w3.org/2000/svg">
<rect width="60" height="60" transform="translate(0 0.678955)" fill="#0E1011"/>
<path d="M41.9153 23.2775C41.0245 23.6712 40.08 23.93 39.113 24.0452C40.1312 23.4348 40.8932 22.4755 41.2573 21.3455C40.3006 21.9149 39.2518 22.3139 38.1598 22.5297C37.4255 21.744 36.4522 21.223 35.3913 21.0476C34.3303 20.8721 33.2411 21.0521 32.293 21.5596C31.3448 22.067 30.5909 22.8735 30.1484 23.8536C29.706 24.8338 29.5997 25.9326 29.8461 26.9794C27.9058 26.8826 26.0076 26.3786 24.2748 25.5003C22.542 24.6219 21.0134 23.3888 19.7883 21.881C19.3548 22.6259 19.1269 23.4726 19.128 24.3345C19.128 26.0262 19.9901 27.5207 21.298 28.3957C20.5235 28.3699 19.7663 28.1608 19.0883 27.7855V27.845C19.0883 28.9719 19.478 30.0641 20.1914 30.9363C20.9048 31.8086 21.898 32.4072 23.0025 32.6307C22.2834 32.826 21.5293 32.8547 20.7975 32.7147C21.1089 33.6847 21.7159 34.5329 22.5335 35.1407C23.3511 35.7484 24.3383 36.0852 25.3568 36.1039C24.3444 36.8986 23.1853 37.486 21.9458 37.8327C20.7063 38.1795 19.4106 38.2786 18.1328 38.1245C20.3631 39.5589 22.9594 40.3203 25.6111 40.3179C34.5875 40.3179 39.4945 32.8827 39.4945 26.4345C39.4945 26.2238 39.4898 26.0134 39.4805 25.8034C40.4352 25.1131 41.2593 24.2581 41.9141 23.2787" fill="white"/>
</svg>
