<svg width="361" height="91" viewBox="0 0 361 91" fill="none" xmlns="http://www.w3.org/2000/svg">
<g clip-path="url(#clip0_4275_509)">
<path d="M349.051 8.98926L360 82.4058H340.42L339.466 69.21H332.606L331.47 82.4058H311.663L321.385 8.98926H349.051ZM338.921 56.1951C337.952 47.8818 336.982 37.6182 336.014 25.4048C334.075 39.4321 332.864 49.6957 332.379 56.1951H338.921Z" fill="white"/>
<path d="M309.278 8.98926V82.4058H290.152V8.98926H309.278Z" fill="white"/>
<path d="M283.451 31.209H265.688V25.7673C265.688 23.228 265.46 21.6106 265.006 20.9153C264.552 20.2199 263.794 19.8723 262.735 19.8723C261.584 19.8723 260.706 20.3408 260.1 21.278C259.524 22.2152 259.236 23.6361 259.236 25.5406C259.236 27.9894 259.57 29.8335 260.236 31.0729C260.872 32.3124 262.674 33.8088 265.642 35.5623C274.153 40.6109 279.513 44.7525 281.724 47.9873C283.935 51.2219 285.04 56.437 285.04 63.632C285.04 68.8619 284.419 72.7162 283.178 75.1952C281.966 77.6743 279.604 79.7605 276.091 81.4534C272.578 83.1161 268.489 83.9473 263.825 83.9473C258.707 83.9473 254.33 82.9798 250.696 81.0452C247.092 79.1102 244.73 76.6465 243.609 73.6535C242.488 70.6606 241.928 66.413 241.928 60.9113V56.1044H259.691V65.0378C259.691 67.7887 259.933 69.5572 260.418 70.3433C260.932 71.1295 261.826 71.5223 263.098 71.5223C264.37 71.5223 265.309 71.0233 265.915 70.0256C266.551 69.028 266.869 67.547 266.869 65.5819C266.869 61.2587 266.278 58.4323 265.097 57.1021C263.885 55.7719 260.902 53.5498 256.148 50.4362C251.392 47.2921 248.243 45.0095 246.698 43.5887C245.154 42.1678 243.867 40.2028 242.837 37.6936C241.837 35.1844 241.338 31.9799 241.338 28.08C241.338 22.4571 242.049 18.3456 243.473 15.7457C244.926 13.1458 247.258 11.1203 250.469 9.66928C253.679 8.18792 257.556 7.44727 262.098 7.44727C267.066 7.44727 271.291 8.2484 274.774 9.85063C278.287 11.4529 280.603 13.4784 281.724 15.9271C282.875 18.3456 283.451 22.4722 283.451 28.3068V31.209Z" fill="white"/>
<path d="M236.68 51.9779C236.68 59.3543 236.499 64.5842 236.135 67.6676C235.802 70.7213 234.712 73.5176 232.864 76.057C231.047 78.5963 228.579 80.5462 225.459 81.9065C222.34 83.2669 218.705 83.9473 214.556 83.9473C210.619 83.9473 207.076 83.3123 203.926 82.0429C200.807 80.7428 198.293 78.8078 196.385 76.2383C194.477 73.6688 193.341 70.8721 192.978 67.849C192.614 64.8259 192.433 59.5357 192.433 51.9779V39.4167C192.433 32.0403 192.599 26.8254 192.932 23.7721C193.296 20.6885 194.386 17.877 196.203 15.3376C198.05 12.7982 200.534 10.8483 203.653 9.48788C206.773 8.12749 210.407 7.44727 214.556 7.44727C218.493 7.44727 222.022 8.09725 225.141 9.39716C228.291 10.6669 230.82 12.5866 232.728 15.1562C234.636 17.7259 235.772 20.5222 236.135 23.5454C236.499 26.5685 236.68 31.859 236.68 39.4167V51.9779ZM217.555 27.8533C217.555 24.4372 217.358 22.2605 216.964 21.3234C216.601 20.356 215.829 19.8723 214.647 19.8723C213.648 19.8723 212.876 20.2653 212.33 21.0513C211.815 21.8071 211.558 24.0744 211.558 27.8533V62.1353C211.558 66.3982 211.725 69.028 212.058 70.0256C212.421 71.0233 213.239 71.5223 214.511 71.5223C215.813 71.5223 216.646 70.9477 217.009 69.7993C217.373 68.6504 217.555 65.9144 217.555 61.5913V27.8533Z" fill="white"/>
<path d="M189.546 8.98926V23.6816H178.189V82.4058H159.064V23.6816H147.752V8.98926H189.546Z" fill="white"/>
<path d="M144.548 8.98926V58.0545C144.548 63.6169 144.366 67.5319 144.003 69.7995C143.64 72.0364 142.564 74.349 140.778 76.7371C138.991 79.0956 136.629 80.8942 133.69 82.1335C130.783 83.3427 127.345 83.9475 123.378 83.9475C118.987 83.9475 115.11 83.2221 111.748 81.7708C108.387 80.3196 105.873 78.4305 104.207 76.1026C102.541 73.7748 101.557 71.3259 101.254 68.7564C100.952 66.1563 100.8 60.7149 100.8 52.4313V8.98926H119.925V64.0404C119.925 67.2448 120.092 69.3004 120.425 70.2072C120.789 71.0842 121.5 71.5225 122.561 71.5225C123.772 71.5225 124.544 71.0388 124.877 70.0713C125.241 69.0736 125.423 66.7458 125.423 63.0882V8.98926H144.548Z" fill="white"/>
<path fill-rule="evenodd" clip-rule="evenodd" d="M45 68.1973C57.4263 68.1973 67.5 58.1236 67.5 45.6973C67.5 33.2709 57.4263 23.1973 45 23.1973C32.5736 23.1973 22.5 33.2709 22.5 45.6973C22.5 58.1236 32.5736 68.1973 45 68.1973ZM45 90.6973C69.8526 90.6973 90 70.5499 90 45.6973C90 20.8444 69.8526 0.697266 45 0.697266C20.1471 0.697266 -3.05176e-05 20.8444 -3.05176e-05 45.6973C-3.05176e-05 70.5499 20.1471 90.6973 45 90.6973Z" fill="white"/>
</g>
<defs>
<clipPath id="clip0_4275_509">
<rect width="360.45" height="90" fill="white" transform="translate(-3.05176e-05 0.697266)"/>
</clipPath>
</defs>
</svg>
