<svg aria-hidden="true" style="position: absolute; width: 0; height: 0; overflow: hidden;" version="1.1" xmlns="http://www.w3.org/2000/svg" xmlns:xlink="http://www.w3.org/1999/xlink">
<defs>
<symbol id="icon-facebook" viewBox="0 0 31 32">
<path fill="#fff" style="fill: var(--color1, #fff)" d="M16.737 26.416c2.597-0.33 4.971-1.637 6.639-3.655s2.505-4.595 2.341-7.208c-0.164-2.613-1.317-5.065-3.224-6.859s-4.426-2.793-7.044-2.797c-2.621-0.002-5.144 0.996-7.056 2.789s-3.067 4.249-3.231 6.865c-0.164 2.616 0.675 5.196 2.347 7.215s4.051 3.324 6.652 3.649v-7.644h-2.575v-2.575h2.575v-2.129c0-1.721 0.18-2.346 0.515-2.975 0.33-0.623 0.839-1.132 1.462-1.461 0.492-0.264 1.103-0.422 2.172-0.49 0.424-0.027 0.972 0.007 1.645 0.103v2.446h-0.644c-1.18 0-1.668 0.055-1.959 0.211-0.173 0.089-0.315 0.231-0.404 0.404-0.154 0.291-0.211 0.579-0.211 1.761v2.131h3.218l-0.644 2.575h-2.575l-0.001 7.644zM15.45 29.071c-7.11 0-12.874-5.763-12.874-12.873s5.763-12.874 12.874-12.874c7.11 0 12.874 5.763 12.874 12.874s-5.764 12.873-12.874 12.873z"></path>
</symbol>
<symbol id="icon-instagram" viewBox="0 0 31 32">
<path fill="#fff" style="fill: var(--color1, #fff)" d="M15.449 12.335c-1.024 0-2.007 0.407-2.731 1.131s-1.131 1.707-1.131 2.731c0 1.024 0.407 2.007 1.131 2.731s1.707 1.131 2.731 1.131c1.024 0 2.007-0.407 2.731-1.131s1.131-1.707 1.131-2.731c0-1.024-0.407-2.007-1.131-2.731s-1.707-1.131-2.731-1.131zM15.449 9.761c1.707 0 3.344 0.678 4.551 1.885s1.885 2.844 1.885 4.552-0.678 3.344-1.885 4.552c-1.207 1.207-2.844 1.885-4.552 1.885s-3.344-0.678-4.551-1.885c-1.207-1.207-1.885-2.844-1.885-4.552s0.678-3.344 1.885-4.552c1.207-1.207 2.844-1.885 4.551-1.885zM23.817 9.439c0 0.427-0.17 0.836-0.471 1.138s-0.711 0.471-1.138 0.471c-0.427 0-0.836-0.17-1.138-0.471s-0.471-0.711-0.471-1.138 0.17-0.836 0.471-1.138c0.302-0.302 0.711-0.471 1.138-0.471s0.836 0.17 1.138 0.471 0.471 0.711 0.471 1.138zM15.449 5.899c-3.185 0-3.705 0.009-5.187 0.075-1.009 0.048-1.686 0.183-2.315 0.427-0.525 0.194-1.001 0.503-1.39 0.905-0.403 0.39-0.712 0.865-0.906 1.39-0.245 0.631-0.38 1.307-0.426 2.315-0.067 1.421-0.076 1.918-0.076 5.187 0 3.186 0.009 3.705 0.075 5.187 0.048 1.008 0.183 1.686 0.426 2.313 0.219 0.56 0.476 0.963 0.904 1.39 0.434 0.433 0.837 0.691 1.39 0.905 0.636 0.246 1.313 0.382 2.317 0.429 1.421 0.067 1.918 0.075 5.187 0.075 3.186 0 3.705-0.009 5.187-0.075 1.007-0.048 1.684-0.183 2.313-0.426 0.525-0.194 1.001-0.503 1.39-0.905 0.434-0.433 0.693-0.836 0.906-1.39 0.245-0.633 0.381-1.311 0.427-2.317 0.067-1.42 0.075-1.918 0.075-5.185 0-3.185-0.009-3.705-0.075-5.187-0.048-1.007-0.184-1.686-0.427-2.315-0.194-0.525-0.503-1.001-0.905-1.39-0.39-0.403-0.865-0.712-1.39-0.906-0.631-0.245-1.308-0.38-2.315-0.426-1.42-0.067-1.917-0.075-5.187-0.075zM15.448 3.324c3.498 0 3.934 0.013 5.308 0.077 1.37 0.064 2.304 0.279 3.124 0.599 0.85 0.327 1.565 0.77 2.281 1.484 0.655 0.643 1.161 1.422 1.484 2.281 0.318 0.82 0.534 1.755 0.599 3.126 0.061 1.372 0.077 1.809 0.077 5.307s-0.013 3.934-0.077 5.306c-0.064 1.372-0.281 2.304-0.599 3.126-0.323 0.859-0.829 1.638-1.484 2.281-0.643 0.655-1.422 1.161-2.281 1.484-0.82 0.318-1.755 0.534-3.124 0.599-1.374 0.061-1.81 0.077-5.308 0.077s-3.934-0.013-5.308-0.077c-1.37-0.064-2.303-0.281-3.124-0.599-0.859-0.323-1.638-0.829-2.281-1.484-0.655-0.643-1.161-1.422-1.484-2.281-0.319-0.82-0.534-1.755-0.599-3.126-0.062-1.372-0.077-1.809-0.077-5.306s0.013-3.934 0.077-5.307c0.064-1.372 0.279-2.304 0.599-3.126 0.323-0.859 0.829-1.638 1.484-2.281 0.643-0.655 1.422-1.161 2.281-1.484 0.82-0.319 1.753-0.534 3.124-0.599 1.375-0.061 1.811-0.077 5.309-0.077z"></path>
</symbol>
<symbol id="icon-twitter" viewBox="0 0 31 32">
<path fill="#fff" style="fill: var(--color1, #fff)" d="M28.596 8.030c-0.983 0.434-2.025 0.72-3.092 0.847 1.124-0.674 1.964-1.732 2.366-2.979-1.056 0.628-2.213 1.069-3.418 1.307-0.81-0.867-1.884-1.442-3.055-1.635s-2.373 0.005-3.419 0.565c-1.046 0.56-1.878 1.45-2.366 2.531s-0.605 2.294-0.334 3.449c-2.141-0.107-4.236-0.663-6.148-1.632s-3.599-2.33-4.951-3.994c-0.478 0.822-0.73 1.756-0.729 2.707 0 1.867 0.951 3.516 2.394 4.481-0.855-0.028-1.69-0.259-2.438-0.673v0.066c-0 1.243 0.43 2.449 1.217 3.411s1.883 1.623 3.102 1.87c-0.793 0.215-1.626 0.247-2.433 0.093 0.344 1.070 1.013 2.006 1.916 2.677s1.991 1.042 3.115 1.063c-1.117 0.877-2.396 1.525-3.764 1.908s-2.797 0.492-4.207 0.322c2.461 1.583 5.326 2.423 8.252 2.42 9.905 0 15.32-8.204 15.32-15.32 0-0.232-0.005-0.465-0.015-0.696 1.053-0.762 1.963-1.705 2.685-2.786z"></path>
</symbol>
</defs>
</svg>
