<svg aria-hidden="true" style="position: absolute; width: 0; height: 0; overflow: hidden;" version="1.1" xmlns="http://www.w3.org/2000/svg" xmlns:xlink="http://www.w3.org/1999/xlink">
<defs>
<symbol id="icon-KAJO" viewBox="0 0 67 32">
<path d="M58.278 31.556c-2.442 0-4.311-0.735-5.608-2.205-1.285-1.481-1.927-3.617-1.927-6.406v-14.514c0-2.616 0.637-4.601 1.91-5.955 1.285-1.354 3.16-2.031 5.625-2.031s4.334 0.677 5.608 2.031c1.285 1.354 1.927 3.339 1.927 5.955v14.514c0 2.789-0.648 4.925-1.944 6.406-1.285 1.47-3.148 2.205-5.59 2.205zM58.33 25.931c0.926 0 1.389-0.897 1.389-2.691v-14.913c0-1.505-0.451-2.257-1.354-2.257-1.019 0-1.528 0.77-1.528 2.309v14.896c0 0.949 0.116 1.632 0.347 2.049 0.231 0.405 0.613 0.608 1.146 0.608z"></path>
<path d="M41.16 31.556c-1.377 0-2.633-0.266-3.767-0.799s-2.037-1.319-2.708-2.361c-0.66-1.053-0.99-2.344-0.99-3.872v-7.656h6.042v7.292c0 0.532 0.104 0.961 0.313 1.285 0.22 0.324 0.567 0.486 1.042 0.486 0.914 0 1.371-0.561 1.371-1.684v-23.524h6.163v22.917c0 1.62-0.318 3.027-0.955 4.219-0.637 1.181-1.516 2.095-2.639 2.743-1.123 0.637-2.413 0.955-3.872 0.955z"></path>
<path d="M16.299 31.278l2.951-30.556h10.365l2.899 30.556h-5.781l-0.434-4.931h-3.681l-0.382 4.931h-5.938zM23.052 21.469h2.778l-1.337-15.538h-0.278l-1.163 15.538z"></path>
<path d="M0.326 31.278v-30.556h6.042v12.24l2.847-12.24h6.146l-3.42 13.993 4.132 16.563h-6.337l-3.333-14.792v14.792h-6.076z"></path>
</symbol>
<symbol id="icon-KAJO1" viewBox="0 0 67 32">
<path fill="#fff" style="fill: var(--color1, #fff)" d="M58.278 31.556c-2.442 0-4.311-0.735-5.608-2.205-1.285-1.481-1.927-3.617-1.927-6.406v-14.514c0-2.616 0.637-4.601 1.91-5.955 1.285-1.354 3.16-2.031 5.625-2.031s4.334 0.677 5.608 2.031c1.285 1.354 1.927 3.339 1.927 5.955v14.514c0 2.789-0.648 4.925-1.944 6.406-1.285 1.47-3.148 2.205-5.59 2.205zM58.33 25.931c0.926 0 1.389-0.897 1.389-2.691v-14.913c0-1.505-0.451-2.257-1.354-2.257-1.019 0-1.528 0.77-1.528 2.309v14.896c0 0.949 0.116 1.632 0.347 2.049 0.231 0.405 0.613 0.608 1.146 0.608z"></path>
<path fill="#fff" style="fill: var(--color1, #fff)" d="M41.16 31.556c-1.377 0-2.633-0.266-3.767-0.799s-2.037-1.319-2.708-2.361c-0.66-1.053-0.99-2.344-0.99-3.872v-7.656h6.042v7.292c0 0.532 0.104 0.961 0.313 1.285 0.22 0.324 0.567 0.486 1.042 0.486 0.914 0 1.371-0.561 1.371-1.684v-23.524h6.163v22.917c0 1.62-0.318 3.027-0.955 4.219-0.637 1.181-1.516 2.095-2.639 2.743-1.123 0.637-2.413 0.955-3.872 0.955z"></path>
<path fill="#fff" style="fill: var(--color1, #fff)" d="M16.299 31.278l2.951-30.556h10.365l2.899 30.556h-5.781l-0.434-4.931h-3.681l-0.382 4.931h-5.938zM23.052 21.469h2.778l-1.337-15.538h-0.278l-1.163 15.538z"></path>
<path fill="#fff" style="fill: var(--color1, #fff)" d="M0.326 31.278v-30.556h6.042v12.24l2.847-12.24h6.146l-3.42 13.993 4.132 16.563h-6.337l-3.333-14.792v14.792h-6.076z"></path>
</symbol>
<symbol id="icon-people" viewBox="0 0 32 32">
<path fill="#a685fa" style="fill: var(--color2, #a685fa)" d="M11 9c0-2.761 2.239-5 5-5s5 2.239 5 5-2.239 5-5 5c-2.761 0-5-2.239-5-5z"></path>
<path fill="#a685fa" style="fill: var(--color2, #a685fa)" d="M21 13c0-2.209 1.791-4 4-4s4 1.791 4 4c0 2.209-1.791 4-4 4s-4-1.791-4-4z"></path>
<path fill="#a685fa" style="fill: var(--color2, #a685fa)" d="M3 13c0-2.209 1.791-4 4-4s4 1.791 4 4c0 2.209-1.791 4-4 4s-4-1.791-4-4z"></path>
<path fill="#a685fa" style="fill: var(--color2, #a685fa)" d="M8.413 20.157c1.597-2.497 4.398-4.157 7.587-4.157s5.99 1.66 7.587 4.158c1.104 1.727 1.582 3.809 1.358 5.84-0.035 0.317-0.219 0.599-0.496 0.758-2.49 1.429-5.376 2.245-8.449 2.245s-5.959-0.817-8.449-2.245c-0.277-0.159-0.461-0.44-0.496-0.758-0.224-2.031 0.254-4.113 1.358-5.841z"></path>
<path fill="#a685fa" style="fill: var(--color2, #a685fa)" d="M6.776 19.005c-0.016 0.025-0.032 0.049-0.048 0.074-1.287 2.013-1.876 4.41-1.696 6.773-0.811-0.123-1.597-0.321-2.352-0.587l-0.153-0.054c-0.28-0.099-0.475-0.352-0.498-0.648l-0.013-0.162c-0.011-0.132-0.016-0.266-0.016-0.401 0-2.687 2.119-4.878 4.776-4.995z"></path>
<path fill="#a685fa" style="fill: var(--color2, #a685fa)" d="M26.967 25.852c0.181-2.363-0.408-4.759-1.695-6.772-0.016-0.025-0.032-0.050-0.049-0.075 2.657 0.117 4.776 2.309 4.776 4.995 0 0.135-0.005 0.269-0.016 0.401l-0.013 0.162c-0.023 0.296-0.219 0.549-0.499 0.648l-0.153 0.054c-0.755 0.266-1.541 0.464-2.352 0.587z"></path>
</symbol>
<symbol id="icon-hat" viewBox="0 0 32 32">
<path fill="#a685fa" style="fill: var(--color2, #a685fa)" d="M15.6 3.74c0.255-0.112 0.545-0.112 0.801 0 4.959 2.166 9.658 4.815 14.039 7.886 0.317 0.222 0.477 0.608 0.411 0.989s-0.346 0.691-0.719 0.794c-0.913 0.252-1.819 0.524-2.716 0.813-3.641 1.174-7.147 2.652-10.486 4.403l-0.004 0.002c-0.151 0.079-0.303 0.159-0.453 0.24-0.295 0.157-0.648 0.157-0.943 0-0.152-0.081-0.305-0.162-0.458-0.242-1.651-0.866-3.343-1.665-5.072-2.394v-0.298c0-0.175 0.090-0.331 0.229-0.415 2.007-1.216 4.077-2.338 6.204-3.359 0.498-0.239 0.708-0.837 0.468-1.334s-0.837-0.708-1.334-0.468c-2.186 1.050-4.313 2.202-6.374 3.452-0.604 0.366-1.011 0.966-1.145 1.637-1.14-0.439-2.295-0.847-3.464-1.224-0.897-0.289-1.802-0.56-2.716-0.812-0.373-0.103-0.653-0.412-0.719-0.794s0.094-0.767 0.411-0.989c4.381-3.071 9.080-5.719 14.039-7.886z"></path>
<path fill="#a685fa" style="fill: var(--color2, #a685fa)" d="M17.415 20.631c3.252-1.737 6.668-3.206 10.22-4.377 0.179 1.886 0.293 3.792 0.341 5.713 0.010 0.412-0.234 0.789-0.615 0.947-3.801 1.587-7.417 3.531-10.806 5.789-0.336 0.224-0.773 0.224-1.109 0-3.389-2.258-7.005-4.202-10.806-5.789-0.381-0.159-0.625-0.535-0.614-0.947 0.047-1.922 0.162-3.827 0.341-5.714 1.228 0.405 2.44 0.845 3.634 1.32v1.694c-0.598 0.346-1 0.992-1 1.732 0 0.66 0.32 1.246 0.814 1.61-0.119 0.507-0.296 1.004-0.53 1.48 0.604 0.285 1.202 0.579 1.795 0.882 0.338-0.687 0.583-1.408 0.735-2.144 0.699-0.312 1.186-1.013 1.186-1.828 0-0.74-0.402-1.387-1-1.732v-0.86c1.562 0.682 3.092 1.425 4.587 2.223 0.883 0.472 1.944 0.472 2.828 0z"></path>
<path fill="#a685fa" style="fill: var(--color2, #a685fa)" d="M5.95 25.95c0.559-0.559 1.004-1.188 1.334-1.86 0.604 0.285 1.202 0.579 1.795 0.882-0.425 0.864-0.997 1.674-1.715 2.392-0.391 0.39-1.024 0.39-1.414 0s-0.391-1.024 0-1.414z"></path>
</symbol>
</defs>
</svg>
