<svg width="360" height="91" viewBox="0 0 360 91" fill="none" xmlns="http://www.w3.org/2000/svg">
<g clip-path="url(#clip0_4275_472)">
<mask id="mask0_4275_472" style="mask-type:luminance" maskUnits="userSpaceOnUse" x="0" y="0" width="360" height="91">
<path d="M359.55 0.697266H0V90.6973H359.55V0.697266Z" fill="white"/>
</mask>
<g mask="url(#mask0_4275_472)">
<path fill-rule="evenodd" clip-rule="evenodd" d="M51.8828 1.28223L69.0876 21.6789L73.1007 59.3697L42.7331 91.2823L7.40085 59.2648L25.1914 13.9981L51.8828 1.28223ZM26.7342 17.4732L40.9251 32.4644L26.4125 53.5138L11.2026 56.9923L26.7342 17.4732ZM11.8421 59.6307L38.8136 84.072L26.4437 56.2917L11.8421 59.6307ZM29.4058 56.2881L43.0765 86.9898L68.7803 59.9785L29.4058 56.2881ZM69.9647 55.4727L66.6306 24.1642L45.1692 32.7852L69.9647 55.4727ZM43.0123 30.7269L65.5412 21.6773L51.1623 4.63101L28.5205 15.4178L43.0123 30.7269ZM42.8954 34.3791L67.7916 57.1588L29.6542 53.5845L42.8954 34.3791Z" fill="white"/>
<path d="M180.911 72.0132C173.288 72.0132 166.853 69.5382 161.705 64.4892C156.557 59.4402 153.983 53.1042 153.983 45.5802C153.983 38.0562 156.557 31.8192 161.705 26.7702C166.853 21.7212 173.288 19.1472 180.911 19.1472C187.346 19.1472 192.89 21.0282 197.741 24.7902C202.592 28.4532 205.661 33.3042 206.948 39.1452H197.939C195.266 32.1162 188.831 27.3642 180.911 27.3642C175.664 27.3642 171.407 29.1462 167.942 32.6112C164.477 36.0762 162.794 40.3332 162.794 45.5802C162.794 50.8272 164.477 55.1832 167.942 58.6482C171.407 62.1132 175.664 63.7962 180.911 63.7962C188.831 63.7962 195.266 59.0442 197.939 52.0152H206.948C205.661 57.8562 202.592 62.7072 197.741 66.4692C192.89 70.1322 187.346 72.0132 180.911 72.0132Z" fill="white"/>
<path d="M291.028 24.3942C287.563 20.9292 283.009 19.1472 277.366 19.1472C268.951 19.1472 262.813 22.6122 259.151 29.6412C256.279 23.0082 249.943 19.1472 241.924 19.1472C234.598 19.1472 229.054 21.9192 225.391 27.5622V20.3352H216.878V70.8252H225.391V40.8282C225.391 32.8092 230.935 27.3642 239.251 27.3642C247.171 27.3642 252.32 32.6112 252.32 40.6302V70.8252H260.833V40.8282C260.833 32.8092 266.377 27.3642 274.693 27.3642C282.613 27.3642 287.761 32.6112 287.761 40.6302V70.8252H296.275V38.2542C296.275 32.4132 294.493 27.8592 291.028 24.3942Z" fill="white"/>
<path fill-rule="evenodd" clip-rule="evenodd" d="M359.206 48.8472V48.8463C359.297 47.6732 359.381 46.5846 359.381 45.5802C359.381 38.0562 356.807 31.8192 351.659 26.7702C346.61 21.7212 340.175 19.1472 332.552 19.1472C324.929 19.1472 318.494 21.7212 313.346 26.7702C308.297 31.8192 305.723 38.0562 305.723 45.5802C305.723 53.1042 308.297 59.4402 313.346 64.4892C318.494 69.5382 324.929 72.0132 332.552 72.0132C344.828 72.0132 354.728 65.0832 358.391 54.6882H348.986C346.313 60.3312 340.076 64.1922 332.552 64.1922C327.998 64.1922 324.038 62.8062 320.771 60.0342C317.504 57.2622 315.524 53.5992 314.831 49.1442H359.183L359.206 48.8472ZM350.273 41.5212H314.93C316.613 32.8092 323.543 26.9682 332.552 26.9682C341.561 26.9682 348.689 32.9082 350.273 41.5212Z" fill="white"/>
<path fill-rule="evenodd" clip-rule="evenodd" d="M146.628 20.3352H108.216V28.5523H138.114V38.4522H123.066C117.819 38.4522 113.463 40.0363 109.998 43.3033C106.533 46.4714 104.85 50.4314 104.85 55.1834C104.85 60.0344 106.533 63.9944 109.998 67.2614C113.463 70.4294 117.819 72.0134 123.066 72.0134C129.897 72.0134 135.837 69.0434 139.005 64.2914V70.8254H146.628V20.3352ZM138.114 54.2924C138.114 60.2324 132.471 64.2914 124.155 64.2914C118.116 64.2914 113.661 60.4304 113.661 55.1834C113.661 50.0354 118.116 46.1744 124.155 46.1744H138.114V54.2924Z" fill="white"/>
</g>
</g>
<defs>
<clipPath id="clip0_4275_472">
<rect width="359.55" height="90" fill="white" transform="translate(0 0.697266)"/>
</clipPath>
</defs>
</svg>
