<svg width="353" height="90" viewBox="0 0 353 90" fill="none" xmlns="http://www.w3.org/2000/svg">
<path fill-rule="evenodd" clip-rule="evenodd" d="M44.8828 0.282227L62.0876 20.6789L66.1007 58.3697L35.7331 90.2823L0.400848 58.2648L18.1914 12.9981L44.8828 0.282227ZM19.7342 16.4732L33.9251 31.4644L19.4125 52.5138L4.20263 55.9923L19.7342 16.4732ZM4.84212 58.6307L31.8136 83.072L19.4437 55.2917L4.84212 58.6307ZM22.4058 55.2881L36.0765 85.9898L61.7803 58.9785L22.4058 55.2881ZM62.9647 54.4727L59.6306 23.1642L38.1692 31.7852L62.9647 54.4727ZM36.0123 29.7269L58.5412 20.6773L44.1623 3.63101L21.5205 14.4178L36.0123 29.7269ZM35.8954 33.3791L60.7916 56.1588L22.6542 52.5845L35.8954 33.3791Z" fill="white"/>
<path d="M173.911 71.0132C166.288 71.0132 159.853 68.5382 154.705 63.4892C149.557 58.4402 146.983 52.1042 146.983 44.5802C146.983 37.0562 149.557 30.8192 154.705 25.7702C159.853 20.7212 166.288 18.1472 173.911 18.1472C180.346 18.1472 185.89 20.0282 190.741 23.7902C195.592 27.4532 198.661 32.3042 199.948 38.1452H190.939C188.266 31.1162 181.831 26.3642 173.911 26.3642C168.664 26.3642 164.407 28.1462 160.942 31.6112C157.477 35.0762 155.794 39.3332 155.794 44.5802C155.794 49.8272 157.477 54.1832 160.942 57.6482C164.407 61.1132 168.664 62.7962 173.911 62.7962C181.831 62.7962 188.266 58.0442 190.939 51.0152H199.948C198.661 56.8562 195.592 61.7072 190.741 65.4692C185.89 69.1322 180.346 71.0132 173.911 71.0132Z" fill="white"/>
<path d="M284.028 23.3942C280.563 19.9292 276.009 18.1472 270.366 18.1472C261.951 18.1472 255.813 21.6122 252.151 28.6412C249.279 22.0082 242.943 18.1472 234.924 18.1472C227.598 18.1472 222.054 20.9192 218.391 26.5622V19.3352H209.878V69.8252H218.391V39.8282C218.391 31.8092 223.935 26.3642 232.251 26.3642C240.171 26.3642 245.32 31.6112 245.32 39.6302V69.8252H253.833V39.8282C253.833 31.8092 259.377 26.3642 267.693 26.3642C275.613 26.3642 280.761 31.6112 280.761 39.6302V69.8252H289.275V37.2542C289.275 31.4132 287.493 26.8592 284.028 23.3942Z" fill="white"/>
<path fill-rule="evenodd" clip-rule="evenodd" d="M352.206 47.8472V47.8463C352.297 46.6732 352.381 45.5846 352.381 44.5802C352.381 37.0562 349.807 30.8192 344.659 25.7702C339.61 20.7212 333.175 18.1472 325.552 18.1472C317.929 18.1472 311.494 20.7212 306.346 25.7702C301.297 30.8192 298.723 37.0562 298.723 44.5802C298.723 52.1042 301.297 58.4402 306.346 63.4892C311.494 68.5382 317.929 71.0132 325.552 71.0132C337.828 71.0132 347.728 64.0832 351.391 53.6882H341.986C339.313 59.3312 333.076 63.1922 325.552 63.1922C320.998 63.1922 317.038 61.8062 313.771 59.0342C310.504 56.2622 308.524 52.5992 307.831 48.1442H352.183L352.206 47.8472ZM343.273 40.5212H307.93C309.613 31.8092 316.543 25.9682 325.552 25.9682C334.561 25.9682 341.689 31.9082 343.273 40.5212Z" fill="white"/>
<path fill-rule="evenodd" clip-rule="evenodd" d="M139.628 19.3352H101.216V27.5523H131.114V37.4522H116.066C110.819 37.4522 106.463 39.0363 102.998 42.3033C99.533 45.4714 97.85 49.4314 97.85 54.1834C97.85 59.0344 99.533 62.9944 102.998 66.2614C106.463 69.4294 110.819 71.0134 116.066 71.0134C122.897 71.0134 128.837 68.0434 132.005 63.2914V69.8254H139.628V19.3352ZM131.114 53.2924C131.114 59.2324 125.471 63.2914 117.155 63.2914C111.116 63.2914 106.661 59.4304 106.661 54.1834C106.661 49.0354 111.116 45.1744 117.155 45.1744H131.114V53.2924Z" fill="white"/>
</svg>
