<svg width="60" height="61" viewBox="0 0 60 61" fill="none" xmlns="http://www.w3.org/2000/svg">
<rect width="60" height="60" transform="translate(0 0.678955)" fill="#0E1011"/>
<path d="M31.1683 39.9399C33.5218 39.6404 35.673 38.456 37.1846 36.6275C38.6962 34.7989 39.4548 32.4633 39.3062 30.0955C39.1577 27.7277 38.1131 25.5053 36.3848 23.88C34.6564 22.2547 32.3741 21.3485 30.0016 21.3455C27.6262 21.3438 25.3396 22.2478 23.6075 23.8733C21.8755 25.4989 20.8284 27.7237 20.6797 30.0944C20.5309 32.4651 21.2917 34.8034 22.807 36.6327C24.3222 38.462 26.478 39.6447 28.835 39.9399V33.0122H26.5016V30.6789H28.835V28.7492C28.835 27.1894 28.9983 26.6235 29.3016 26.053C29.6007 25.4888 30.0624 25.0274 30.627 24.7289C31.0726 24.4897 31.6268 24.3462 32.5951 24.2844C32.9794 24.2595 33.4763 24.2906 34.0861 24.3777V26.5944H33.5028C32.433 26.5944 31.9908 26.6445 31.7271 26.7857C31.5699 26.8668 31.4419 26.9949 31.3608 27.152C31.2208 27.4157 31.1695 27.677 31.1695 28.748V30.6789H34.0861L33.5028 33.0122H31.1695L31.1683 39.9399ZM30.0016 42.3455C23.5581 42.3455 18.335 37.1224 18.335 30.6789C18.335 24.2354 23.5581 19.0122 30.0016 19.0122C36.4451 19.0122 41.6683 24.2354 41.6683 30.6789C41.6683 37.1224 36.4451 42.3455 30.0016 42.3455Z" fill="white"/>
</svg>
