<svg width="340" height="81" viewBox="0 0 340 81" fill="none" xmlns="http://www.w3.org/2000/svg">
<g clip-path="url(#clip0_4275_494)">
<mask id="mask0_4275_494" style="mask-type:luminance" maskUnits="userSpaceOnUse" x="0" y="0" width="340" height="81">
<path d="M339.2 0.697266H0V80.6973H339.2V0.697266Z" fill="white"/>
</mask>
<g mask="url(#mask0_4275_494)">
<path d="M40.216 0.697266C16.332 0.697266 0 15.8973 0 40.9133C0 64.7973 16.332 80.6973 40.216 80.6973C64.1 80.6973 80 64.7973 80 40.9133C80 15.8973 64.1 0.697266 40.216 0.697266ZM63.972 64.6693C62.4152 66.2197 60.6788 67.5785 58.8 68.7173V35.8973L51.6 31.8973V71.8973C48.9944 72.6737 46.312 73.1633 43.6 73.3573V20.7573L36.4 16.7573V73.3333C33.8251 73.1209 31.2786 72.6461 28.8 71.9173V34.2973L21.6 38.2973V68.7733C12.516 63.3613 7.2 53.5733 7.2 40.8973C7.2 30.7253 10.308 22.3053 16.192 16.5453C21.976 10.8933 30.284 7.89727 40.216 7.89727C50.148 7.89727 58.316 10.8813 64 16.5213C69.764 22.2573 72.8 30.6933 72.8 40.9213C72.8 50.6973 69.748 58.8973 63.972 64.6693Z" fill="white"/>
<path d="M250.38 23.0972H258.372L258.3 59.0971H250.308L250.38 23.0972Z" fill="white"/>
<path d="M254.34 16.2572C253.044 16.2572 251.916 15.8012 250.956 14.8892C250.044 13.9292 249.588 12.8012 249.588 11.5052C249.588 10.2092 250.044 9.1052 250.956 8.1932C251.916 7.2812 253.044 6.8252 254.34 6.8252C255.636 6.8252 256.74 7.2812 257.652 8.1932C258.612 9.1052 259.092 10.2092 259.092 11.5052C259.092 12.8012 258.612 13.9292 257.652 14.8892C256.74 15.8012 255.636 16.2572 254.34 16.2572Z" fill="white"/>
<path d="M266.364 59.0974H274.428V40.3054C274.428 36.8974 275.172 34.2814 276.66 32.4574C278.148 30.6334 280.236 29.7454 282.924 29.7934C284.508 29.7934 285.876 30.1054 287.028 30.7294C288.228 31.3534 289.14 32.4574 289.764 34.0414C290.436 35.5774 290.772 37.7854 290.772 40.6654V59.0974H298.836V38.5054C298.836 32.9854 297.636 28.9054 295.236 26.2654C292.884 23.5774 289.524 22.2334 285.156 22.2334C282.324 22.2334 279.876 22.9534 277.812 24.3934C276.427 25.3276 275.258 26.5645 274.305 28.1041L273.924 23.0974H266.364V59.0974Z" fill="white"/>
<path fill-rule="evenodd" clip-rule="evenodd" d="M312.26 57.5854C314.996 59.1694 318.116 59.9614 321.62 59.9614C324.356 59.9614 326.78 59.5774 328.892 58.8094C331.052 58.0414 332.9 56.9374 334.436 55.4974C336.02 54.0574 337.316 52.3774 338.324 50.4574L330.908 47.2894C330.14 48.8254 329.06 50.0974 327.668 51.1054C326.276 52.0654 324.5 52.5454 322.34 52.5454C320.372 52.5454 318.572 52.1134 316.94 51.2494C315.356 50.3374 314.084 49.0414 313.124 47.3614C312.444 46.1082 312.018 44.6682 311.845 43.0414H339.044C339.044 38.7214 338.276 35.0014 336.74 31.8814C335.204 28.7614 333.14 26.3854 330.548 24.7534C328.004 23.0734 325.124 22.2334 321.908 22.2334C318.356 22.2334 315.188 23.0494 312.404 24.6814C309.668 26.2654 307.508 28.4734 305.924 31.3054C304.34 34.1374 303.548 37.4014 303.548 41.0974C303.548 44.7934 304.316 48.0574 305.852 50.8894C307.436 53.7214 309.572 55.9534 312.26 57.5854ZM330.177 36.6334C330.052 36.1786 329.912 35.7466 329.756 35.3374C329.036 33.3214 327.98 31.8334 326.588 30.8734C325.244 29.8654 323.588 29.3614 321.62 29.3614C319.556 29.3614 317.78 29.8174 316.292 30.7294C314.804 31.6414 313.676 32.9854 312.908 34.7614C312.654 35.3351 312.441 35.9591 312.27 36.6334H330.177Z" fill="white"/>
<path d="M234.228 8.69727V59.0973H242.292V8.69727H234.228Z" fill="white"/>
<path fill-rule="evenodd" clip-rule="evenodd" d="M219.121 59.0973L218.832 53.7229C217.837 55.3041 216.613 56.6157 215.161 57.6573C213.001 59.1933 210.409 59.9613 207.385 59.9613C204.121 59.9613 201.265 59.1933 198.817 57.6573C196.417 56.0733 194.521 53.8653 193.129 51.0333C191.785 48.2013 191.113 44.8893 191.113 41.0973C191.113 37.2573 191.785 33.9453 193.129 31.1613C194.521 28.3293 196.417 26.1453 198.817 24.6093C201.265 23.0253 204.121 22.2333 207.385 22.2333C210.409 22.2333 213.001 23.0253 215.161 24.6093C216.579 25.5955 217.779 26.8488 218.761 28.3692V8.69727H226.753V59.0973H219.121ZM217.537 47.0733C218.353 45.3453 218.761 43.3533 218.761 41.0973C218.761 38.8413 218.353 36.8493 217.537 35.1213C216.769 33.3933 215.665 32.0493 214.225 31.0893C212.833 30.1293 211.201 29.6493 209.329 29.6493C207.409 29.6493 205.705 30.1293 204.217 31.0893C202.729 32.0493 201.553 33.3933 200.689 35.1213C199.873 36.8493 199.441 38.8413 199.393 41.0973C199.441 43.3533 199.873 45.3453 200.689 47.0733C201.553 48.8013 202.729 50.1693 204.217 51.1773C205.753 52.1373 207.481 52.6173 209.401 52.6173C211.225 52.6173 212.833 52.1373 214.225 51.1773C215.665 50.1693 216.769 48.8013 217.537 47.0733Z" fill="white"/>
<path d="M177.554 8.69727V59.0973H185.618V8.69727H177.554Z" fill="white"/>
<path fill-rule="evenodd" clip-rule="evenodd" d="M153.718 59.9614C150.118 59.9614 146.902 59.1694 144.07 57.5854C141.286 55.9534 139.102 53.7214 137.518 50.8894C135.934 48.0574 135.142 44.7934 135.142 41.0974C135.142 37.4014 135.91 34.1374 137.446 31.3054C139.03 28.4734 141.214 26.2654 143.998 24.6814C146.782 23.0494 149.974 22.2334 153.574 22.2334C157.174 22.2334 160.366 23.0494 163.15 24.6814C165.934 26.2654 168.094 28.4734 169.63 31.3054C171.214 34.1374 172.006 37.4014 172.006 41.0974C172.006 44.7934 171.238 48.0574 169.702 50.8894C168.166 53.7214 166.006 55.9534 163.222 57.5854C160.438 59.1694 157.27 59.9614 153.718 59.9614ZM153.718 52.5454C155.686 52.5454 157.438 52.0654 158.974 51.1054C160.51 50.0974 161.71 48.7534 162.574 47.0734C163.438 45.3454 163.87 43.3534 163.87 41.0974C163.87 38.8414 163.414 36.8734 162.502 35.1934C161.638 33.4654 160.438 32.1214 158.902 31.1614C157.366 30.1534 155.59 29.6494 153.574 29.6494C151.558 29.6494 149.782 30.1294 148.246 31.0894C146.71 32.0494 145.51 33.3934 144.646 35.1214C143.782 36.8494 143.35 38.8414 143.35 41.0974C143.35 43.3534 143.782 45.3454 144.646 47.0734C145.558 48.7534 146.782 50.0974 148.318 51.1054C149.902 52.0654 151.702 52.5454 153.718 52.5454Z" fill="white"/>
<path fill-rule="evenodd" clip-rule="evenodd" d="M104.275 73.7854C106.339 74.2174 108.643 74.4334 111.187 74.4334C114.883 74.4334 118.123 73.6894 120.907 72.2014C123.691 70.7614 125.851 68.6014 127.387 65.7214C128.923 62.8894 129.691 59.4334 129.691 55.3534V23.0974H121.627V28.9025C120.552 27.1145 119.208 25.6594 117.595 24.5374C115.435 23.0014 112.891 22.2334 109.963 22.2334C106.699 22.2334 103.843 23.0014 101.395 24.5374C98.9952 26.0734 97.0992 28.2094 95.7072 30.9454C94.3632 33.6814 93.6912 36.9214 93.6912 40.6654C93.6912 44.1694 94.3632 47.2654 95.7072 49.9534C97.0992 52.5934 98.9952 54.6574 101.395 56.1454C103.843 57.6334 106.699 58.3774 109.963 58.3774C112.891 58.3774 115.435 57.6574 117.595 56.2174C119.208 55.1306 120.552 53.7362 121.627 52.0342V55.5694C121.627 58.2574 121.171 60.4654 120.259 62.1934C119.347 63.9214 118.075 65.1934 116.443 66.0094C114.811 66.8734 112.963 67.3054 110.899 67.3054C108.979 67.3054 107.251 67.1134 105.715 66.7294C104.179 66.3454 102.835 65.8894 101.683 65.3614C100.579 64.8814 99.6912 64.4734 99.0192 64.1374L95.9232 70.6174C96.6912 71.1454 97.7712 71.6974 99.1632 72.2734C100.555 72.8494 102.259 73.3534 104.275 73.7854ZM116.947 50.0974C115.603 51.0574 114.019 51.5374 112.195 51.5374C110.275 51.5374 108.571 51.0574 107.083 50.0974C105.595 49.1374 104.419 47.8414 103.555 46.2094C102.739 44.5294 102.331 42.6094 102.331 40.4494C102.331 38.2414 102.739 36.3214 103.555 34.6894C104.419 33.0094 105.571 31.7134 107.011 30.8014C108.499 29.8414 110.203 29.3614 112.123 29.3614C113.947 29.3614 115.555 29.8414 116.947 30.8014C118.339 31.7134 119.419 33.0094 120.187 34.6894C120.955 36.3214 121.339 38.2414 121.339 40.4494C121.339 42.6094 120.955 44.5294 120.187 46.2094C119.419 47.8414 118.339 49.1374 116.947 50.0974Z" fill="white"/>
</g>
</g>
<defs>
<clipPath id="clip0_4275_494">
<rect width="339.2" height="80" fill="white" transform="translate(0 0.697266)"/>
</clipPath>
</defs>
</svg>
