<svg aria-hidden="true" style="position: absolute; width: 0; height: 0; overflow: hidden;" version="1.1" xmlns="http://www.w3.org/2000/svg" xmlns:xlink="http://www.w3.org/1999/xlink">
<defs>
<symbol id="icon-Asgardia" viewBox="0 0 205 32">
<path d="M12.903 31.92h-2.446v-32l2.446 2.038v29.962z"></path>
<path d="M5.158 31.92h2.446v-25.798l-2.446 2.038v23.759z"></path>
<path d="M2.508 31.92h-2.446v-17.645l2.446-2.038v19.683z"></path>
<path d="M23.298 31.92h-2.446v-19.683l2.446 2.038v17.645z"></path>
<path d="M15.756 31.92h2.446v-23.759l-2.446-2.038v25.798z"></path>
<path d="M49.91 22.901c0 1.32 0.391 2.060 1.418 2.060s1.329-1.015 1.329-2.17c0-1.913-0.408-2.506-2.289-4.010s-2.893-2.481-2.893-5.116c0-2.341 0.698-4.706 3.864-4.706s3.736 2.347 3.736 4.278v0.953h-2.68v-0.874c0-1.222-0.207-1.993-1.117-1.993s-1.117 0.776-1.117 1.956c0 1.18 0.235 1.87 1.776 3.013 2.625 1.974 3.429 3.117 3.429 6.112 0 2.524-0.871 4.89-4.143 4.89s-4.032-2.097-4.032-4.443v-1.051h2.72v1.1zM34.102 27.039l0.609-4.755h2.708l0.692 4.755h2.826l-2.932-17.792h-3.82l-2.825 17.792h2.742zM36.106 11.857c0.201 2.011 0.581 4.878 0.983 7.903h-2.021c0.054-0.411 0.113-0.85 0.173-1.304l0-0c0.328-2.456 0.715-5.36 0.776-6.598h0.089zM70.448 27.039v-9.95h-4.244v2.359h1.519v2.598c0 1.834-0.285 2.824-1.457 2.824-0.977 0-1.385-0.74-1.385-2.164v-9.101c0-1.424 0.419-2.115 1.407-2.115 1.234 0 1.368 1.082 1.368 2.023v0.709h2.719v-0.575c0-1.913-0.391-4.657-4.071-4.657-3.043 0-4.16 2.139-4.16 5.042v8.38c0 2.995 0.832 4.89 3.412 4.89 1.128 0 2.15-0.41 2.636-1.595 0.020 0.447 0.068 0.893 0.145 1.332h2.111zM79.885 27.039l0.614-4.755h2.686l0.692 4.755h2.814l-2.931-17.792h-3.82l-2.792 17.792h2.736zM81.895 11.857c0.202 2.011 0.581 4.877 0.983 7.903h-2.044c0.054-0.411 0.113-0.85 0.174-1.305v-0.001c0.327-2.456 0.714-5.36 0.776-6.597h0.111zM95.939 19.087v7.946h-2.703v-17.786h3.742c2.669 0 4.244 1.088 4.244 4.278v0.678c0 2.732-1.117 3.429-1.782 3.71 1.022 0.489 1.602 1.222 1.602 3.667-0.044 1.823 0.010 3.648 0.162 5.464h-2.614c-0.198-0.924-0.187-3.232-0.181-4.676 0.002-0.228 0.002-0.435 0.002-0.611 0-2.17-0.279-2.665-1.849-2.665l-0.625-0.006zM95.939 16.82h0.619c1.43 0 1.954-0.55 1.954-2.481v-0.611c0-1.375-0.279-2.213-1.809-2.213h-0.765v5.305zM112.228 9.247h-3.747v17.792h3.747c4.166 0 4.623-2.989 4.623-5.709v-6.821c0-3.307-0.905-5.262-4.623-5.262zM112.077 24.704h-0.866v-13.098h0.849c1.787 0 2.066 1.051 2.066 2.683v7.414c0 1.84-0.268 3.001-2.050 3.001zM126.846 9.247h-2.702v17.792h2.702v-17.792zM136.216 27.039l0.614-4.755h2.698l0.686 4.755h2.826l-2.931-17.792h-3.82l-2.826 17.792h2.753zM139.062 18.685c0.047 0.355 0.094 0.714 0.142 1.074h-2.033c0.034-0.251 0.069-0.514 0.106-0.784 0.342-2.552 0.778-5.793 0.844-7.119h0.1c0.178 1.771 0.498 4.206 0.842 6.829z"></path>
</symbol>
<symbol id="icon-Goldline" viewBox="0 0 205 32">
<path d="M16.086 0c-9.554 0-16.086 6.080-16.086 16.086 0 9.554 6.533 15.914 16.086 15.914s15.914-6.36 15.914-15.914c0-10.006-6.36-16.086-15.914-16.086zM25.589 25.589c-0.623 0.62-1.317 1.164-2.069 1.619v-13.128l-2.88-1.6v16c-1.042 0.311-2.115 0.506-3.2 0.584v-21.040l-2.88-1.6v22.63c-1.030-0.085-2.049-0.275-3.040-0.566v-15.048l-2.88 1.6v12.19c-3.634-2.165-5.76-6.080-5.76-11.15 0-4.069 1.243-7.437 3.597-9.741 2.314-2.261 5.637-3.459 9.61-3.459s7.24 1.194 9.514 3.45c2.306 2.294 3.52 5.669 3.52 9.76 0 3.91-1.221 7.19-3.531 9.499z"></path>
<path d="M100.152 8.96h3.197l-0.029 14.4h-3.197l0.029-14.4z"></path>
<path d="M101.736 6.224c-0.518 0-0.97-0.182-1.354-0.547-0.365-0.384-0.547-0.835-0.547-1.354s0.182-0.96 0.547-1.325c0.384-0.365 0.835-0.547 1.354-0.547s0.96 0.182 1.325 0.547c0.384 0.365 0.576 0.806 0.576 1.325s-0.192 0.97-0.576 1.354c-0.365 0.365-0.806 0.547-1.325 0.547z"></path>
<path d="M106.546 23.36h3.226v-7.517c0-1.363 0.298-2.41 0.893-3.139s1.43-1.085 2.506-1.066c0.634 0 1.181 0.125 1.642 0.374 0.48 0.25 0.845 0.691 1.094 1.325 0.269 0.614 0.403 1.498 0.403 2.65v7.373h3.226v-8.237c0-2.208-0.48-3.84-1.44-4.896-0.941-1.075-2.285-1.613-4.032-1.613-1.133 0-2.112 0.288-2.938 0.864-0.554 0.374-1.022 0.868-1.402 1.484l-0.153-2.003h-3.024v14.4z"></path>
<path d="M124.904 22.755c-1.075-0.653-1.93-1.546-2.563-2.678-0.614-1.133-0.922-2.438-0.922-3.917s0.317-2.784 0.95-3.917 1.498-2.016 2.592-2.65c1.114-0.653 2.381-0.979 3.802-0.979 1.286 0 2.438 0.336 3.456 1.008 1.037 0.653 1.862 1.603 2.477 2.851s0.922 2.736 0.922 4.464h-10.88c0.070 0.651 0.24 1.227 0.512 1.728 0.384 0.672 0.893 1.19 1.526 1.555 0.653 0.346 1.373 0.518 2.16 0.518 0.864 0 1.574-0.192 2.131-0.576 0.557-0.403 0.989-0.912 1.296-1.526l2.966 1.267c-0.403 0.768-0.922 1.44-1.555 2.016-0.614 0.576-1.354 1.018-2.218 1.325-0.845 0.307-1.814 0.461-2.909 0.461-1.402 0-2.65-0.317-3.744-0.95zM132.070 14.374c-0.050-0.182-0.106-0.355-0.168-0.518-0.288-0.806-0.71-1.402-1.267-1.786-0.538-0.403-1.2-0.605-1.987-0.605-0.826 0-1.536 0.182-2.131 0.547s-1.046 0.902-1.354 1.613c-0.102 0.229-0.187 0.479-0.255 0.749h7.162z"></path>
<path d="M93.691 3.2v20.16h3.226v-20.16h-3.226z"></path>
<path d="M87.649 23.36l-0.116-2.15c-0.398 0.632-0.887 1.157-1.468 1.574-0.864 0.614-1.901 0.922-3.11 0.922-1.306 0-2.448-0.307-3.428-0.922-0.96-0.634-1.718-1.517-2.275-2.65-0.538-1.133-0.806-2.458-0.806-3.974 0-1.536 0.269-2.861 0.806-3.974 0.557-1.133 1.315-2.006 2.275-2.621 0.98-0.634 2.122-0.95 3.428-0.95 1.21 0 2.246 0.317 3.11 0.95 0.566 0.394 1.046 0.896 1.44 1.504v-7.869h3.197v20.16h-3.053zM87.015 18.55c0.326-0.691 0.49-1.488 0.49-2.39s-0.163-1.699-0.49-2.39c-0.307-0.691-0.749-1.229-1.325-1.613-0.557-0.384-1.21-0.576-1.958-0.576-0.768 0-1.45 0.192-2.045 0.576s-1.066 0.922-1.411 1.613c-0.327 0.691-0.5 1.488-0.519 2.39 0.019 0.902 0.192 1.699 0.519 2.39 0.346 0.691 0.816 1.238 1.411 1.642 0.614 0.384 1.306 0.576 2.074 0.576 0.73 0 1.373-0.192 1.93-0.576 0.576-0.403 1.018-0.95 1.325-1.642z"></path>
<path d="M71.022 3.2v20.16h3.226v-20.16h-3.226z"></path>
<path d="M61.487 23.706c-1.44 0-2.726-0.317-3.859-0.95-1.114-0.653-1.987-1.546-2.621-2.678s-0.95-2.438-0.95-3.917c0-1.478 0.307-2.784 0.922-3.917 0.634-1.133 1.507-2.016 2.621-2.65 1.114-0.653 2.39-0.979 3.83-0.979s2.717 0.326 3.83 0.979c1.114 0.634 1.978 1.517 2.592 2.65 0.634 1.133 0.95 2.438 0.95 3.917s-0.307 2.784-0.922 3.917-1.478 2.026-2.592 2.678c-1.114 0.634-2.381 0.95-3.802 0.95zM61.487 20.739c0.787 0 1.488-0.192 2.102-0.576 0.614-0.403 1.094-0.941 1.44-1.613 0.346-0.691 0.518-1.488 0.518-2.39s-0.182-1.69-0.547-2.362c-0.346-0.691-0.826-1.229-1.44-1.613-0.614-0.403-1.325-0.605-2.131-0.605s-1.517 0.192-2.131 0.576c-0.614 0.384-1.094 0.922-1.44 1.613s-0.518 1.488-0.518 2.39c0 0.902 0.173 1.699 0.518 2.39 0.365 0.672 0.854 1.21 1.469 1.613 0.634 0.384 1.354 0.576 2.16 0.576z"></path>
<path d="M41.71 29.235c0.826 0.173 1.747 0.259 2.765 0.259 1.478 0 2.774-0.298 3.888-0.893 1.114-0.576 1.978-1.44 2.592-2.592 0.614-1.133 0.922-2.515 0.922-4.147v-12.902h-3.226v2.322c-0.43-0.715-0.968-1.297-1.613-1.746-0.864-0.614-1.882-0.922-3.053-0.922-1.306 0-2.448 0.307-3.427 0.922-0.96 0.614-1.718 1.469-2.275 2.563-0.538 1.094-0.806 2.39-0.806 3.888 0 1.402 0.269 2.64 0.806 3.715 0.557 1.056 1.315 1.882 2.275 2.477 0.979 0.595 2.122 0.893 3.427 0.893 1.171 0 2.189-0.288 3.053-0.864 0.645-0.435 1.183-0.992 1.613-1.673v1.414c0 1.075-0.182 1.958-0.547 2.65s-0.874 1.2-1.526 1.526c-0.653 0.346-1.392 0.518-2.218 0.518-0.768 0-1.459-0.077-2.074-0.23s-1.152-0.336-1.613-0.547c-0.442-0.192-0.797-0.355-1.066-0.49l-1.238 2.592c0.307 0.211 0.739 0.432 1.296 0.662s1.238 0.432 2.045 0.605zM46.779 19.76c-0.538 0.384-1.171 0.576-1.901 0.576-0.768 0-1.45-0.192-2.045-0.576s-1.066-0.902-1.411-1.555c-0.326-0.672-0.49-1.44-0.49-2.304 0-0.883 0.163-1.651 0.49-2.304 0.346-0.672 0.806-1.19 1.382-1.555 0.595-0.384 1.277-0.576 2.045-0.576 0.73 0 1.373 0.192 1.93 0.576 0.557 0.365 0.989 0.883 1.296 1.555 0.307 0.653 0.461 1.421 0.461 2.304 0 0.864-0.154 1.632-0.461 2.304-0.307 0.653-0.739 1.171-1.296 1.555z"></path>
</symbol>
<symbol id="icon-Circle" viewBox="0 0 115 32">
<path d="M16.934 27.16c2.066-0.175 4.043-0.92 5.711-2.152l3.101 3.68c-2.369 1.82-5.201 2.94-8.174 3.233s-5.969-0.251-8.648-1.572c-2.679-1.321-4.935-3.366-6.513-5.904s-2.412-5.465-2.411-8.453c0.001-2.987 0.839-5.915 2.418-8.451s3.837-4.579 6.517-5.899c2.68-1.319 5.677-1.862 8.649-1.566s5.803 1.418 8.171 3.239l-3.102 3.68c-1.667-1.234-3.643-1.98-5.709-2.157s-4.14 0.224-5.992 1.157-3.408 2.361-4.496 4.127c-1.088 1.765-1.664 3.798-1.665 5.871s0.574 4.106 1.66 5.873c1.086 1.766 2.642 3.196 4.493 4.13s3.925 1.337 5.991 1.162z"></path>
<path d="M26.846 27.758l-3.101-3.68h0.005c1.092-1.043 1.962-2.297 2.556-3.686s0.9-2.884 0.9-4.394-0.306-3.005-0.9-4.394c-0.594-1.389-1.464-2.643-2.556-3.686l3.104-3.68c1.624 1.499 2.919 3.318 3.805 5.342s1.343 4.21 1.342 6.42c-0.001 2.21-0.459 4.395-1.346 6.419s-2.184 3.842-3.809 5.339z"></path>
<path d="M90.634 0.96v25.696h3.062v-25.696h-3.062z"></path>
<path d="M105.831 24.227c-3.274 0-5.773-1.795-6.371-4.963h14.749c0.070-0.458 0.106-0.915 0.106-1.373 0-4.928-3.45-9.293-8.765-9.293-5.491 0-9.222 4.048-9.222 9.258 0 5.28 3.766 9.258 9.434 9.258 3.52 0 6.195-1.584 7.744-3.978l-2.605-1.478c-0.88 1.443-2.64 2.57-5.069 2.57zM99.46 16.589c0.493-3.062 2.781-5.104 6.090-5.104 2.64 0 5.139 1.619 5.667 5.104h-11.757z"></path>
<path d="M80.747 27.113c-5.315 0-9.258-4.048-9.258-9.258s3.942-9.258 9.258-9.258c3.485 0 6.442 1.83 7.779 4.611l-2.57 1.478c-0.88-1.866-2.851-3.098-5.21-3.098-3.52 0-6.195 2.71-6.195 6.266 0 3.52 2.675 6.23 6.195 6.23 2.394 0 4.33-1.232 5.315-3.062l2.605 1.514c-1.478 2.746-4.47 4.576-7.92 4.576z"></path>
<path d="M71.497 8.739c-2.218 0-4.365 0.81-5.491 3.274v-2.957h-3.062v17.6h3.062v-9.328c0-4.154 2.851-5.491 5.491-5.386v-3.203z"></path>
<path d="M57.814 5.853c-1.162 0-2.077-0.915-2.077-2.042s0.915-2.077 2.077-2.077c1.126 0 2.042 0.95 2.042 2.077s-0.915 2.042-2.042 2.042z"></path>
<path d="M56.265 26.656v-17.6h3.062v17.6h-3.062z"></path>
<path d="M37.12 17.856c0 5.21 3.942 9.258 9.258 9.258 3.45 0 6.442-1.83 7.92-4.576l-2.605-1.514c-0.986 1.83-2.922 3.062-5.315 3.062-3.52 0-6.195-2.71-6.195-6.23 0-3.555 2.675-6.266 6.195-6.266 2.358 0 4.33 1.232 5.21 3.098l2.57-1.478c-1.338-2.781-4.294-4.611-7.779-4.611-5.315 0-9.258 4.048-9.258 9.258z"></path>
</symbol>
<symbol id="icon-Acme" viewBox="0 0 205 32">
<path d="M18.447 0.208l6.117 7.252 1.427 13.401-10.797 11.347-12.563-11.384 6.325-16.095 9.49-4.521zM9.506 5.965l-5.522 14.051 5.408-1.237 5.16-7.484-5.046-5.33zM4.211 20.954l9.59 8.69-4.398-9.877-5.192 1.187zM10.455 19.766l4.861 10.916 9.139-9.604-14-1.312zM24.876 19.476l-1.185-11.132-7.631 3.065 8.816 8.067zM15.293 10.677l8.010-3.218-5.112-6.061-8.050 3.835 5.153 5.443zM15.252 11.976l-4.708 6.829 13.56 1.271-8.852-8.099z"></path>
<path d="M64.324 25.357c-2.71 0-4.998-0.88-6.829-2.675s-2.746-4.048-2.746-6.723c0-2.675 0.915-4.893 2.746-6.688s4.118-2.71 6.829-2.71c2.288 0 4.259 0.669 5.984 2.006 1.725 1.302 2.816 3.027 3.274 5.104h-3.203c-0.95-2.499-3.238-4.189-6.054-4.189-1.866 0-3.379 0.634-4.611 1.866s-1.83 2.746-1.83 4.611c0 1.866 0.598 3.414 1.83 4.646s2.746 1.83 4.611 1.83c2.816 0 5.104-1.69 6.054-4.189h3.203c-0.458 2.077-1.549 3.802-3.274 5.139-1.725 1.302-3.696 1.971-5.984 1.971z"></path>
<path d="M103.477 8.426c-1.232-1.232-2.851-1.866-4.858-1.866-2.992 0-5.174 1.232-6.477 3.731-1.021-2.358-3.274-3.731-6.125-3.731-2.605 0-4.576 0.986-5.878 2.992v-2.57h-3.027v17.952h3.027v-10.666c0-2.851 1.971-4.787 4.928-4.787 2.816 0 4.646 1.866 4.646 4.717v10.736h3.027v-10.666c0-2.851 1.971-4.787 4.928-4.787 2.816 0 4.646 1.866 4.646 4.717v10.736h3.027v-11.581c0-2.077-0.634-3.696-1.866-4.928z"></path>
<path d="M127.718 17.12v-0c0.033-0.417 0.062-0.804 0.062-1.161 0-2.675-0.915-4.893-2.746-6.688-1.795-1.795-4.083-2.71-6.794-2.71s-4.998 0.915-6.829 2.71c-1.795 1.795-2.71 4.013-2.71 6.688s0.915 4.928 2.71 6.723c1.83 1.795 4.118 2.675 6.829 2.675 4.365 0 7.885-2.464 9.187-6.16h-3.344c-0.95 2.006-3.168 3.379-5.843 3.379-1.619 0-3.027-0.493-4.189-1.478s-1.866-2.288-2.112-3.872h15.77l0.008-0.106zM124.542 14.515h-12.566c0.598-3.098 3.062-5.174 6.266-5.174s5.738 2.112 6.301 5.174z"></path>
<path d="M52.134 6.982h-13.658v2.922h10.63v3.52h-5.35c-1.866 0-3.414 0.563-4.646 1.725-1.232 1.126-1.83 2.534-1.83 4.224 0 1.725 0.598 3.133 1.83 4.294 1.232 1.126 2.781 1.69 4.646 1.69 2.429 0 4.541-1.056 5.667-2.746v2.323h2.71v-17.952zM49.107 19.056c0 2.112-2.006 3.555-4.963 3.555-2.147 0-3.731-1.373-3.731-3.238 0-1.83 1.584-3.203 3.731-3.203h4.963v2.886z"></path>
</symbol>
<symbol id="icon-Kanba" viewBox="0 0 205 32">
<path d="M10.455 12.59l-1.573 0.003c-0.408 0.001-0.815 0.026-1.219 0.077-0.398-1.186-0.537-2.444-0.408-3.688s0.522-2.447 1.154-3.526c1.19-2.010 3.124-3.469 5.383-4.061s4.661-0.269 6.683 0.899 3.503 3.086 4.119 5.339c0.617 2.253 0.32 4.657-0.826 6.693l-5.805 10.054-1.512-2.619 5.043-8.749c0.54-0.932 0.829-1.989 0.841-3.066s-0.256-2.139-0.777-3.083c-0.52-0.944-1.276-1.736-2.193-2.302s-1.965-0.884-3.042-0.925c-1.077-0.041-2.146 0.197-3.103 0.691s-1.771 1.227-2.362 2.128-0.938 1.94-1.009 3.015c-0.071 1.075 0.138 2.15 0.605 3.121zM30.799 17.678h-0.002c0.778 1.348 1.188 2.877 1.188 4.434s-0.41 3.086-1.188 4.434c-0.778 1.348-1.898 2.468-3.246 3.246s-2.877 1.188-4.434 1.188c-1.344 0.008-2.672-0.293-3.88-0.88s-2.266-1.444-3.091-2.506l-0.048-0.062c-0.241-0.314-0.462-0.643-0.661-0.986l-5.789-10.029h3.022l5.035 8.72c0.54 0.936 1.314 1.716 2.246 2.263s1.99 0.844 3.070 0.86 2.147-0.248 3.095-0.766c0.948-0.519 1.745-1.275 2.314-2.194s0.889-1.97 0.931-3.050c0.041-1.080-0.198-2.152-0.695-3.112s-1.234-1.774-2.14-2.364-1.949-0.935-3.027-1.001l0.79-1.368c0.203-0.355 0.384-0.722 0.542-1.099 1.244 0.239 2.421 0.744 3.451 1.481s1.887 1.689 2.514 2.789zM11.769 27.656c0.946-0.493 1.75-1.219 2.335-2.111l0.766 1.334c0.212 0.366 0.448 0.717 0.707 1.051-0.828 0.963-1.856 1.735-3.012 2.262s-2.413 0.796-3.684 0.788c-1.175 0.016-2.341-0.202-3.43-0.64s-2.082-1.089-2.918-1.914c-0.836-0.825-1.5-1.808-1.953-2.892s-0.687-2.247-0.687-3.421 0.233-2.338 0.687-3.421c0.453-1.084 1.117-2.067 1.953-2.892s1.828-1.476 2.918-1.914 2.256-0.656 3.43-0.641h11.598l-1.507 2.618h-10.091c-1.097 0-2.175 0.29-3.124 0.838s-1.739 1.338-2.287 2.288c-0.548 0.95-0.837 2.028-0.837 3.125s0.289 2.175 0.837 3.125c0.533 0.924 1.294 1.695 2.209 2.242s1.956 0.85 3.022 0.88c1.066 0.031 2.122-0.212 3.068-0.704z"></path>
<path d="M53.786 25.923l-0.461-2.189-0.23-0.086c-0.173 0.115-0.403 0.202-0.662 0.202-0.461 0-0.864-0.259-1.354-0.806l-4.147-4.867 5.702-6.134-0.086-0.202h-3.37l-5.962 6.566v-11.635l-0.23-0.173-2.909 0.432v19.21h3.139v-4.781l1.411-1.526 4.061 4.896c0.864 1.066 1.958 1.757 3.341 1.757 0.72 0 1.267-0.173 1.642-0.432l0.115-0.23z"></path>
<path d="M94.79 11.494c4.378 0 7.344 3.341 7.344 7.546s-2.966 7.546-7.344 7.546c-2.045 0-3.773-0.835-5.011-2.102v1.757h-2.822v-19.181l2.938-0.432 0.202 0.144v6.538c1.21-1.123 2.822-1.814 4.694-1.814zM94.416 23.85c2.707 0 4.493-2.131 4.493-4.81 0-2.65-1.786-4.81-4.493-4.81-2.534 0-4.55 1.67-4.55 4.81s2.016 4.81 4.55 4.81z"></path>
<path d="M117.827 23.763l0.461 2.131-0.115 0.202c-0.403 0.288-1.008 0.49-1.728 0.49-1.296 0-2.246-0.691-2.621-1.872-1.238 1.181-3.024 1.872-4.925 1.872-2.966 0-5.702-1.642-5.702-4.752 0-3.197 2.88-4.666 6.422-4.666 1.555 0 2.765 0.288 3.802 0.662v-0.806c0-2.074-1.872-3.082-3.859-3.082-1.642 0-2.909 0.691-3.917 1.67h-0.23l-1.584-1.498v-0.23c1.555-1.498 3.542-2.39 6.019-2.39 3.11 0 6.653 1.382 6.653 5.53v5.558c0 0.778 0.144 1.267 0.662 1.267 0.202 0 0.346-0.086 0.461-0.173l0.202 0.086zM113.421 21.027v-1.066c-0.749-0.288-1.987-0.662-3.398-0.662-2.275 0-3.686 0.979-3.686 2.534 0 1.642 1.555 2.448 3.197 2.448 1.987 0 3.888-1.238 3.888-3.254z"></path>
<path d="M84.124 17.571c0-3.6-2.333-6.077-5.99-6.077-1.93 0-3.571 0.691-4.694 1.814-0.374-1.152-1.267-1.814-2.592-1.814-0.749 0-1.382 0.202-1.786 0.49l-0.115 0.202 0.461 2.131 0.202 0.086c0.115-0.086 0.259-0.173 0.461-0.173 0.547 0 0.662 0.49 0.662 1.267v10.742h3.168v-8.41c0-2.189 1.469-3.629 3.629-3.629s3.456 1.44 3.456 3.629v8.41h3.139v-8.669z"></path>
<path d="M68.163 23.763l0.461 2.131-0.115 0.202c-0.403 0.288-1.008 0.49-1.728 0.49-1.296 0-2.246-0.691-2.621-1.872-1.238 1.181-3.024 1.872-4.925 1.872-2.966 0-5.702-1.642-5.702-4.752 0-3.197 2.88-4.666 6.422-4.666 1.555 0 2.765 0.288 3.802 0.662v-0.806c0-2.074-1.872-3.082-3.859-3.082-1.642 0-2.909 0.691-3.917 1.67h-0.23l-1.584-1.498v-0.23c1.555-1.498 3.542-2.39 6.019-2.39 3.11 0 6.653 1.382 6.653 5.53v5.558c0 0.778 0.144 1.267 0.662 1.267 0.202 0 0.346-0.086 0.461-0.173l0.202 0.086zM63.757 21.027v-1.066c-0.749-0.288-1.987-0.662-3.398-0.662-2.275 0-3.686 0.979-3.686 2.534 0 1.642 1.555 2.448 3.197 2.448 1.987 0 3.888-1.238 3.888-3.254z"></path>
</symbol>
<symbol id="icon-Utosia" viewBox="0 0 129 32">
<path d="M124.107 2.948l3.893 26.104h-6.962l-0.339-4.692h-2.439l-0.404 4.692h-7.042l3.457-26.104h9.837zM120.506 19.733c-0.345-2.956-0.69-6.605-1.034-10.948-0.689 4.987-1.12 8.637-1.292 10.948h2.326z"></path>
<path d="M109.966 2.948v26.104h-6.8v-26.104h6.8z"></path>
<path d="M100.782 10.849h-6.316v-1.935c0-0.903-0.081-1.478-0.242-1.725s-0.431-0.371-0.808-0.371c-0.41 0-0.722 0.167-0.937 0.5-0.205 0.333-0.307 0.838-0.307 1.516 0 0.871 0.118 1.526 0.355 1.967 0.226 0.441 0.867 0.973 1.922 1.596 3.026 1.795 4.932 3.268 5.718 4.418s1.179 3.004 1.179 5.563c0 1.86-0.221 3.23-0.662 4.111-0.431 0.881-1.271 1.623-2.52 2.225-1.249 0.591-2.703 0.887-4.361 0.887-1.82 0-3.376-0.344-4.669-1.032-1.281-0.688-2.121-1.564-2.519-2.628s-0.598-2.574-0.598-4.531v-1.709h6.315v3.176c0 0.978 0.086 1.607 0.258 1.886 0.183 0.28 0.501 0.419 0.954 0.419s0.786-0.177 1.001-0.532c0.226-0.355 0.339-0.881 0.339-1.58 0-1.537-0.21-2.542-0.63-3.015-0.431-0.473-1.491-1.263-3.182-2.37-1.69-1.118-2.81-1.93-3.359-2.435s-1.007-1.204-1.374-2.096c-0.355-0.892-0.533-2.032-0.533-3.418 0-1.999 0.253-3.461 0.759-4.386 0.517-0.924 1.346-1.645 2.487-2.16 1.142-0.527 2.52-0.79 4.135-0.79 1.766 0 3.269 0.285 4.507 0.855 1.249 0.57 2.073 1.29 2.471 2.161 0.409 0.86 0.614 2.327 0.614 4.402v1.032z"></path>
<path d="M84.153 18.233c0 2.623-0.064 4.482-0.194 5.579-0.118 1.086-0.506 2.080-1.163 2.983-0.646 0.903-1.523 1.596-2.633 2.080s-2.401 0.726-3.876 0.726c-1.4 0-2.66-0.226-3.78-0.677-1.109-0.462-2.003-1.15-2.681-2.064s-1.082-1.908-1.212-2.983c-0.129-1.075-0.194-2.956-0.194-5.643v-4.466c0-2.623 0.059-4.477 0.178-5.563 0.129-1.096 0.517-2.096 1.163-2.999 0.657-0.903 1.54-1.596 2.649-2.080s2.401-0.726 3.877-0.726c1.4 0 2.654 0.231 3.764 0.693 1.12 0.451 2.019 1.134 2.698 2.048s1.082 1.908 1.211 2.983c0.13 1.075 0.194 2.956 0.194 5.643v4.466zM77.353 9.656c0-1.215-0.070-1.989-0.21-2.322-0.129-0.344-0.404-0.516-0.824-0.516-0.355 0-0.63 0.14-0.824 0.419-0.183 0.269-0.275 1.075-0.275 2.419v12.189c0 1.516 0.059 2.451 0.178 2.805 0.129 0.355 0.42 0.532 0.872 0.532 0.463 0 0.759-0.204 0.888-0.613s0.194-1.381 0.194-2.918v-11.996z"></path>
<path d="M67.394 2.948v5.224h-4.038v20.88h-6.8v-20.88h-4.022v-5.224h14.86z"></path>
<path d="M51.395 2.948v17.445c0 1.978-0.065 3.37-0.194 4.176-0.129 0.795-0.512 1.618-1.147 2.467-0.635 0.839-1.475 1.478-2.52 1.919-1.034 0.43-2.256 0.645-3.666 0.645-1.561 0-2.94-0.258-4.135-0.774s-2.089-1.188-2.681-2.015c-0.592-0.828-0.942-1.698-1.050-2.612-0.108-0.924-0.162-2.859-0.162-5.804v-15.446h6.8v19.574c0 1.139 0.059 1.87 0.178 2.193 0.129 0.312 0.382 0.468 0.759 0.468 0.431 0 0.705-0.172 0.824-0.516 0.129-0.355 0.194-1.182 0.194-2.483v-19.235h6.8z"></path>
<path d="M16 24c-4.418 0-8-3.582-8-8s3.582-8 8-8c4.418 0 8 3.582 8 8s-3.582 8-8 8zM16 32c8.836 0 16-7.164 16-16s-7.164-16-16-16c-8.837 0-16 7.163-16 16s7.163 16 16 16z"></path>
</symbol>
</defs>
</svg>
