<svg aria-hidden="true" style="position: absolute; width: 0; height: 0; overflow: hidden;" version="1.1" xmlns="http://www.w3.org/2000/svg" xmlns:xlink="http://www.w3.org/1999/xlink">
<defs>
<symbol id="icon-KAJO" viewBox="0 0 67 32">
<path fill="#fff" style="fill: var(--color1, #fff)" d="M58.278 31.556c-2.442 0-4.311-0.735-5.608-2.205-1.285-1.481-1.927-3.617-1.927-6.406v-14.514c0-2.616 0.637-4.601 1.91-5.955 1.285-1.354 3.16-2.031 5.625-2.031s4.334 0.677 5.608 2.031c1.285 1.354 1.927 3.339 1.927 5.955v14.514c0 2.789-0.648 4.925-1.944 6.406-1.285 1.47-3.148 2.205-5.59 2.205zM58.33 25.931c0.926 0 1.389-0.897 1.389-2.691v-14.913c0-1.505-0.451-2.257-1.354-2.257-1.019 0-1.528 0.77-1.528 2.309v14.896c0 0.949 0.116 1.632 0.347 2.049 0.231 0.405 0.613 0.608 1.146 0.608z"></path>
<path fill="#fff" style="fill: var(--color1, #fff)" d="M41.16 31.556c-1.377 0-2.633-0.266-3.767-0.799s-2.037-1.319-2.708-2.361c-0.66-1.053-0.99-2.344-0.99-3.872v-7.656h6.042v7.292c0 0.532 0.104 0.961 0.313 1.285 0.22 0.324 0.567 0.486 1.042 0.486 0.914 0 1.371-0.561 1.371-1.684v-23.524h6.163v22.917c0 1.62-0.318 3.027-0.955 4.219-0.637 1.181-1.516 2.095-2.639 2.743-1.123 0.637-2.413 0.955-3.872 0.955z"></path>
<path fill="#fff" style="fill: var(--color1, #fff)" d="M16.299 31.278l2.951-30.556h10.365l2.899 30.556h-5.781l-0.434-4.931h-3.681l-0.382 4.931h-5.938zM23.052 21.469h2.778l-1.337-15.538h-0.278l-1.163 15.538z"></path>
<path fill="#fff" style="fill: var(--color1, #fff)" d="M0.326 31.278v-30.556h6.042v12.24l2.847-12.24h6.146l-3.42 13.993 4.132 16.563h-6.337l-3.333-14.792v14.792h-6.076z"></path>
</symbol>
</defs>
</svg>
