<svg width="74" height="35" viewBox="0 0 74 35" fill="none" xmlns="http://www.w3.org/2000/svg">
<path d="M64.9504 34.651C62.2466 34.651 60.1771 33.8373 58.742 32.2099C57.3196 30.5697 56.6084 28.2055 56.6084 25.1173V9.04831C56.6084 6.15231 57.3132 3.95468 58.7227 2.45543C60.1451 0.956171 62.221 0.206543 64.9504 0.206543C67.6798 0.206543 69.7493 0.956171 71.1589 2.45543C72.5812 3.95468 73.2924 6.15231 73.2924 9.04831V25.1173C73.2924 28.2055 72.5748 30.5697 71.1396 32.2099C69.7173 33.8373 67.6542 34.651 64.9504 34.651ZM65.0081 28.4233C66.0332 28.4233 66.5458 27.4302 66.5458 25.444V8.93298C66.5458 7.26714 66.046 6.43422 65.0465 6.43422C63.9189 6.43422 63.3551 7.28636 63.3551 8.99065V25.4825C63.3551 26.5332 63.4832 27.2893 63.7395 27.7506C63.9958 28.1991 64.4186 28.4233 65.0081 28.4233Z" fill="white"/>
<path d="M45.9985 34.6506C44.4736 34.6506 43.0833 34.3559 41.8275 33.7664C40.5717 33.177 39.5722 32.3056 38.829 31.1523C38.0986 29.9862 37.7334 28.5574 37.7334 26.866V18.3894H44.4224V26.4623C44.4224 27.0518 44.5377 27.5259 44.7684 27.8847C45.0118 28.2435 45.3963 28.4229 45.9216 28.4229C46.934 28.4229 47.4401 27.8014 47.4401 26.5584V0.513672H54.2637V25.8857C54.2637 27.6797 53.9113 29.2366 53.2065 30.5565C52.5017 31.8635 51.5278 32.8758 50.2849 33.5934C49.0419 34.2982 47.6131 34.6506 45.9985 34.6506Z" fill="white"/>
<path d="M18.4731 34.343L21.7408 0.513672H33.2158L36.4258 34.343H30.0251L29.5446 28.8842H25.4697L25.0468 34.343H18.4731ZM25.9502 23.483H29.0256L27.5456 6.28004H27.238L25.9502 23.483Z" fill="white"/>
<path d="M0.790039 34.343V0.513672H7.47903V14.0646L10.6313 0.513672H17.4356L13.649 16.006L18.2237 34.343H11.2079L7.51747 17.9666V34.343H0.790039Z" fill="white"/>
</svg>
