<svg width="333" height="85" viewBox="0 0 333 85" fill="none" xmlns="http://www.w3.org/2000/svg">
<path fill-rule="evenodd" clip-rule="evenodd" d="M29.4034 33.1077C28.0892 30.3771 27.5033 27.3532 27.7025 24.3293C27.9018 21.3055 28.8794 18.3845 30.5406 15.85C32.2017 13.3155 34.4899 11.2535 37.183 9.86413C39.8762 8.4748 42.8828 7.80534 45.9108 7.92076C48.9393 8.03619 51.8859 8.93259 54.4658 10.5229C57.0452 12.1132 59.1696 14.3434 60.633 16.997C62.0964 19.6506 62.8492 22.6375 62.8177 25.6678C62.7862 28.698 61.9717 31.6686 60.4534 34.2912L46.2694 58.8972L50.5219 66.2637L66.8479 37.9857C70.0704 32.262 70.9047 25.4983 69.1704 19.163C67.4361 12.8277 63.2732 7.43211 57.5847 4.14769C51.8963 0.863301 45.1422 -0.0448436 38.7883 1.62044C32.4345 3.28572 26.994 7.38999 23.6479 13.0422C21.8709 16.0789 20.7643 19.4607 20.4026 22.9604C20.0409 26.4602 20.4324 29.9968 21.5509 33.3327C22.6884 33.1903 23.8335 33.1182 24.9799 33.1167L29.4034 33.1077ZM86.6209 47.4177C84.8578 44.323 82.4454 41.6466 79.5496 39.5733C76.6534 37.4999 73.3428 36.0786 69.8449 35.4072C69.4008 36.4684 68.8914 37.5008 68.3195 38.4987L66.0964 42.3462C69.1303 42.5326 72.0639 43.5027 74.6109 45.1614C77.1579 46.8201 79.2315 49.1115 80.6287 51.8106C82.026 54.5101 82.6992 57.526 82.5826 60.5635C82.4661 63.6006 81.5643 66.5562 79.9646 69.1405C78.3648 71.7253 76.122 73.8507 73.4557 75.31C70.789 76.7689 67.7898 77.5114 64.7505 77.4651C61.7112 77.4187 58.7358 76.5849 56.115 75.0454C53.4942 73.5055 51.3176 71.3122 49.7975 68.6802L35.6359 44.1552H27.1354L43.4164 72.3612C43.9762 73.3237 44.5969 74.2498 45.2749 75.1332L45.41 75.3087C47.7288 78.2935 50.7028 80.7046 54.103 82.3557C57.5028 84.0072 61.2369 84.8536 65.0164 84.8307C69.3945 84.8302 73.6952 83.6773 77.4864 81.4881C81.2776 79.2988 84.4263 76.1502 86.6151 72.3589C88.8043 68.5672 89.9568 64.2666 89.9568 59.8885C89.9573 55.5105 88.8048 51.2094 86.6164 47.4177H86.6209ZM33.1007 75.4806C35.7604 74.0946 38.0211 72.0511 39.6677 69.5442L41.8232 73.2972C42.4198 74.3259 43.0843 75.3136 43.8122 76.2537C41.4825 78.9631 38.5916 81.1335 35.3397 82.6144C32.0879 84.0954 28.5529 84.8518 24.9797 84.8307C21.6762 84.8752 18.3968 84.2628 15.3318 83.0293C12.2669 81.7959 9.47758 79.9657 7.12579 77.6451C4.774 75.3249 2.90663 72.5605 1.63206 69.5122C0.357506 66.4644 -0.298828 63.1933 -0.298828 59.8894C-0.298828 56.5855 0.357506 53.3149 1.63206 50.2666C2.90663 47.2188 4.774 44.454 7.12579 42.1337C9.47758 39.8133 12.2669 37.9832 15.3318 36.7497C18.3968 35.5162 21.6762 34.9038 24.9797 34.9482H57.6L53.361 42.3103H24.9797C21.8944 42.3117 18.8639 43.1251 16.1924 44.6686C13.521 46.2121 11.3028 48.4311 9.76054 51.1036C8.21835 53.7757 7.40651 56.8065 7.40651 59.8917C7.40655 62.9773 8.21844 66.0081 9.76068 68.6802C11.2598 71.278 13.3988 73.4484 15.9741 74.9856C18.5493 76.5228 21.4751 77.3751 24.473 77.4619C27.4708 77.5483 30.441 76.8661 33.1007 75.4806Z" fill="white"/>
<path d="M151.273 70.6061L149.977 64.4501L149.329 64.2071C148.843 64.5311 148.195 64.7741 147.466 64.7741C146.17 64.7741 145.036 64.0451 143.659 62.5061L131.995 48.8171L148.033 31.5641L147.79 30.9971H138.313L121.546 49.4651V16.7411L120.898 16.2551L112.717 17.4701V71.4971H121.546V58.0511L125.515 53.7581L136.936 67.5281C139.366 70.5251 142.444 72.4691 146.332 72.4691C148.357 72.4691 149.896 71.9831 150.949 71.2541L151.273 70.6061Z" fill="white"/>
<path fill-rule="evenodd" clip-rule="evenodd" d="M266.599 30.0252C278.911 30.0252 287.254 39.4212 287.254 51.2472C287.254 63.0732 278.911 72.4692 266.599 72.4692C260.848 72.4692 255.988 70.1202 252.505 66.5562V71.4972H244.567V17.5512L252.829 16.3362L253.396 16.7412V35.1282C256.798 31.9692 261.334 30.0252 266.599 30.0252ZM265.546 64.7742C273.16 64.7742 278.182 58.7802 278.182 51.2472C278.182 43.7952 273.16 37.7202 265.546 37.7202C258.418 37.7202 252.748 42.4182 252.748 51.2472C252.748 60.0762 258.418 64.7742 265.546 64.7742Z" fill="white"/>
<path fill-rule="evenodd" clip-rule="evenodd" d="M331.389 64.5311L332.685 70.5251L332.361 71.0921C331.227 71.9021 329.526 72.4691 327.501 72.4691C323.856 72.4691 321.183 70.5251 320.13 67.2041C316.647 70.5251 311.625 72.4691 306.279 72.4691C297.936 72.4691 290.241 67.8521 290.241 59.1041C290.241 50.1131 298.341 45.9821 308.304 45.9821C312.678 45.9821 316.08 46.7921 318.996 47.8451V45.5771C318.996 39.7451 313.731 36.9101 308.142 36.9101C303.525 36.9101 299.961 38.8541 297.126 41.6081H296.478L292.023 37.3961V36.7481C296.397 32.5361 301.986 30.0251 308.952 30.0251C317.7 30.0251 327.663 33.9131 327.663 45.5771V61.2101C327.663 63.3971 328.068 64.7741 329.526 64.7741C330.093 64.7741 330.498 64.5311 330.822 64.2881L331.389 64.5311ZM318.996 56.8361V53.8391C316.89 53.0291 313.407 51.9761 309.438 51.9761C303.039 51.9761 299.07 54.7301 299.07 59.1041C299.07 63.7211 303.444 65.9891 308.061 65.9891C313.65 65.9891 318.996 62.5061 318.996 56.8361Z" fill="white"/>
<path d="M236.599 47.1161C236.599 36.9911 230.038 30.0251 219.751 30.0251C214.324 30.0251 209.707 31.9691 206.548 35.1281C205.495 31.8881 202.984 30.0251 199.258 30.0251C197.152 30.0251 195.37 30.5921 194.236 31.4021L193.912 31.9691L195.208 37.9631L195.775 38.2061C196.099 37.9631 196.504 37.7201 197.071 37.7201C198.61 37.7201 198.934 39.0971 198.934 41.2841V71.4971H207.844V47.8451C207.844 41.6891 211.975 37.6391 218.05 37.6391C224.125 37.6391 227.77 41.6891 227.77 47.8451V71.4971H236.599V47.1161Z" fill="white"/>
<path fill-rule="evenodd" clip-rule="evenodd" d="M191.709 64.5311L193.005 70.5251L192.681 71.0921C191.547 71.9021 189.846 72.4691 187.821 72.4691C184.176 72.4691 181.503 70.5251 180.45 67.2041C176.967 70.5251 171.945 72.4691 166.599 72.4691C158.256 72.4691 150.561 67.8521 150.561 59.1041C150.561 50.1131 158.661 45.9821 168.624 45.9821C172.998 45.9821 176.4 46.7921 179.316 47.8451V45.5771C179.316 39.7451 174.051 36.9101 168.462 36.9101C163.845 36.9101 160.281 38.8541 157.446 41.6081H156.798L152.343 37.3961V36.7481C156.717 32.5361 162.306 30.0251 169.272 30.0251C178.02 30.0251 187.983 33.9131 187.983 45.5771V61.2101C187.983 63.3971 188.388 64.7741 189.846 64.7741C190.413 64.7741 190.818 64.5311 191.142 64.2881L191.709 64.5311ZM179.316 56.8361V53.8391C177.21 53.0291 173.727 51.9761 169.758 51.9761C163.359 51.9761 159.39 54.7301 159.39 59.1041C159.39 63.7211 163.764 65.9891 168.381 65.9891C173.97 65.9891 179.316 62.5061 179.316 56.8361Z" fill="white"/>
</svg>
