<svg width="333" height="91" viewBox="0 0 333 91" fill="none" xmlns="http://www.w3.org/2000/svg">
<g clip-path="url(#clip0_4275_439)">
<mask id="mask0_4275_439" style="mask-type:luminance" maskUnits="userSpaceOnUse" x="0" y="0" width="333" height="91">
<path d="M333 0.697266H0V90.6973H333V0.697266Z" fill="white"/>
</mask>
<g mask="url(#mask0_4275_439)">
<path fill-rule="evenodd" clip-rule="evenodd" d="M29.4034 36.1077C28.0892 33.3771 27.5033 30.3532 27.7025 27.3293C27.9018 24.3055 28.8794 21.3845 30.5406 18.85C32.2017 16.3155 34.4899 14.2535 37.183 12.8641C39.8762 11.4748 42.8828 10.8053 45.9108 10.9208C48.9393 11.0362 51.8859 11.9326 54.4658 13.5229C57.0452 15.1132 59.1696 17.3434 60.633 19.997C62.0964 22.6506 62.8492 25.6375 62.8177 28.6678C62.7862 31.698 61.9717 34.6686 60.4534 37.2912L46.2694 61.8972L50.5219 69.2637L66.8479 40.9857C70.0704 35.262 70.9047 28.4983 69.1704 22.163C67.4361 15.8277 63.2732 10.4321 57.5847 7.14769C51.8963 3.8633 45.1422 2.95516 38.7883 4.62044C32.4345 6.28572 26.994 10.39 23.6479 16.0422C21.8709 19.0789 20.7643 22.4607 20.4026 25.9604C20.0409 29.4602 20.4324 32.9968 21.5509 36.3327C22.6884 36.1903 23.8335 36.1182 24.9799 36.1167L29.4034 36.1077ZM86.6209 50.4177C84.8578 47.323 82.4454 44.6466 79.5496 42.5733C76.6534 40.4999 73.3428 39.0786 69.8449 38.4072C69.4008 39.4684 68.8914 40.5008 68.3195 41.4987L66.0964 45.3462C69.1303 45.5326 72.0639 46.5027 74.6109 48.1614C77.1579 49.8201 79.2315 52.1115 80.6287 54.8106C82.026 57.5101 82.6992 60.526 82.5826 63.5635C82.4661 66.6006 81.5643 69.5562 79.9646 72.1405C78.3648 74.7253 76.122 76.8507 73.4557 78.31C70.789 79.7689 67.7898 80.5114 64.7505 80.4651C61.7112 80.4187 58.7358 79.5849 56.115 78.0454C53.4942 76.5055 51.3176 74.3122 49.7975 71.6802L35.6359 47.1552H27.1354L43.4164 75.3612C43.9762 76.3237 44.5969 77.2498 45.2749 78.1332L45.41 78.3087C47.7288 81.2935 50.7028 83.7046 54.103 85.3557C57.5028 87.0072 61.2369 87.8536 65.0164 87.8307C69.3945 87.8302 73.6952 86.6773 77.4864 84.4881C81.2776 82.2988 84.4263 79.1502 86.6151 75.3589C88.8043 71.5672 89.9568 67.2666 89.9568 62.8885C89.9573 58.5105 88.8048 54.2094 86.6164 50.4177H86.6209ZM33.1007 78.4806C35.7604 77.0946 38.0211 75.0511 39.6677 72.5442L41.8232 76.2972C42.4198 77.3259 43.0843 78.3136 43.8122 79.2537C41.4825 81.9631 38.5916 84.1335 35.3397 85.6144C32.0879 87.0954 28.5529 87.8518 24.9797 87.8307C21.6762 87.8752 18.3968 87.2628 15.3318 86.0293C12.2669 84.7959 9.47758 82.9657 7.12579 80.6451C4.774 78.3249 2.90663 75.5605 1.63206 72.5122C0.357506 69.4644 -0.298828 66.1933 -0.298828 62.8894C-0.298828 59.5855 0.357506 56.3149 1.63206 53.2666C2.90663 50.2188 4.774 47.454 7.12579 45.1337C9.47758 42.8133 12.2669 40.9832 15.3318 39.7497C18.3968 38.5162 21.6762 37.9038 24.9797 37.9482H57.6L53.361 45.3103H24.9797C21.8944 45.3117 18.8639 46.1251 16.1924 47.6686C13.521 49.2121 11.3028 51.4311 9.76054 54.1036C8.21835 56.7757 7.40651 59.8065 7.40651 62.8917C7.40655 65.9773 8.21844 69.0081 9.76068 71.6802C11.2598 74.278 13.3988 76.4484 15.9741 77.9856C18.5493 79.5228 21.4751 80.3751 24.473 80.4619C27.4708 80.5483 30.441 79.8661 33.1007 78.4806Z" fill="white"/>
<path d="M151.273 73.6061L149.977 67.4501L149.329 67.2071C148.843 67.5311 148.195 67.7741 147.466 67.7741C146.17 67.7741 145.036 67.0451 143.659 65.5061L131.995 51.8171L148.033 34.5641L147.79 33.9971H138.313L121.546 52.4651V19.7411L120.898 19.2551L112.717 20.4701V74.4971H121.546V61.0511L125.515 56.7581L136.936 70.5281C139.366 73.5251 142.444 75.4691 146.332 75.4691C148.357 75.4691 149.896 74.9831 150.949 74.2541L151.273 73.6061Z" fill="white"/>
<path fill-rule="evenodd" clip-rule="evenodd" d="M266.599 33.0252C278.911 33.0252 287.254 42.4212 287.254 54.2472C287.254 66.0732 278.911 75.4692 266.599 75.4692C260.848 75.4692 255.988 73.1202 252.505 69.5562V74.4972H244.567V20.5512L252.829 19.3362L253.396 19.7412V38.1282C256.798 34.9692 261.334 33.0252 266.599 33.0252ZM265.546 67.7742C273.16 67.7742 278.182 61.7802 278.182 54.2472C278.182 46.7952 273.16 40.7202 265.546 40.7202C258.418 40.7202 252.748 45.4182 252.748 54.2472C252.748 63.0762 258.418 67.7742 265.546 67.7742Z" fill="white"/>
<path fill-rule="evenodd" clip-rule="evenodd" d="M331.389 67.5311L332.685 73.5251L332.361 74.0921C331.227 74.9021 329.526 75.4691 327.501 75.4691C323.856 75.4691 321.183 73.5251 320.13 70.2041C316.647 73.5251 311.625 75.4691 306.279 75.4691C297.936 75.4691 290.241 70.8521 290.241 62.1041C290.241 53.1131 298.341 48.9821 308.304 48.9821C312.678 48.9821 316.08 49.7921 318.996 50.8451V48.5771C318.996 42.7451 313.731 39.9101 308.142 39.9101C303.525 39.9101 299.961 41.8541 297.126 44.6081H296.478L292.023 40.3961V39.7481C296.397 35.5361 301.986 33.0251 308.952 33.0251C317.7 33.0251 327.663 36.9131 327.663 48.5771V64.2101C327.663 66.3971 328.068 67.7741 329.526 67.7741C330.093 67.7741 330.498 67.5311 330.822 67.2881L331.389 67.5311ZM318.996 59.8361V56.8391C316.89 56.0291 313.407 54.9761 309.438 54.9761C303.039 54.9761 299.07 57.7301 299.07 62.1041C299.07 66.7211 303.444 68.9891 308.061 68.9891C313.65 68.9891 318.996 65.5061 318.996 59.8361Z" fill="white"/>
<path d="M236.599 50.1161C236.599 39.9911 230.038 33.0251 219.751 33.0251C214.324 33.0251 209.707 34.9691 206.548 38.1281C205.495 34.8881 202.984 33.0251 199.258 33.0251C197.152 33.0251 195.37 33.5921 194.236 34.4021L193.912 34.9691L195.208 40.9631L195.775 41.2061C196.099 40.9631 196.504 40.7201 197.071 40.7201C198.61 40.7201 198.934 42.0971 198.934 44.2841V74.4971H207.844V50.8451C207.844 44.6891 211.975 40.6391 218.05 40.6391C224.125 40.6391 227.77 44.6891 227.77 50.8451V74.4971H236.599V50.1161Z" fill="white"/>
<path fill-rule="evenodd" clip-rule="evenodd" d="M191.709 67.5311L193.005 73.5251L192.681 74.0921C191.547 74.9021 189.846 75.4691 187.821 75.4691C184.176 75.4691 181.503 73.5251 180.45 70.2041C176.967 73.5251 171.945 75.4691 166.599 75.4691C158.256 75.4691 150.561 70.8521 150.561 62.1041C150.561 53.1131 158.661 48.9821 168.624 48.9821C172.998 48.9821 176.4 49.7921 179.316 50.8451V48.5771C179.316 42.7451 174.051 39.9101 168.462 39.9101C163.845 39.9101 160.281 41.8541 157.446 44.6081H156.798L152.343 40.3961V39.7481C156.717 35.5361 162.306 33.0251 169.272 33.0251C178.02 33.0251 187.983 36.9131 187.983 48.5771V64.2101C187.983 66.3971 188.388 67.7741 189.846 67.7741C190.413 67.7741 190.818 67.5311 191.142 67.2881L191.709 67.5311ZM179.316 59.8361V56.8391C177.21 56.0291 173.727 54.9761 169.758 54.9761C163.359 54.9761 159.39 57.7301 159.39 62.1041C159.39 66.7211 163.764 68.9891 168.381 68.9891C173.97 68.9891 179.316 65.5061 179.316 59.8361Z" fill="white"/>
</g>
</g>
<defs>
<clipPath id="clip0_4275_439">
<rect width="333" height="90" fill="white" transform="translate(0 0.697266)"/>
</clipPath>
</defs>
</svg>
