<svg aria-hidden="true" style="position: absolute; width: 0; height: 0; overflow: hidden;" version="1.1" xmlns="http://www.w3.org/2000/svg" xmlns:xlink="http://www.w3.org/1999/xlink">
<defs>
<symbol id="icon-arrow-right" viewBox="0 0 31 32">
<path fill="#fff" style="fill: var(--color1, #fff)" d="M20.913 17.764h-14.448c-0.366 0-0.673-0.124-0.921-0.372s-0.372-0.555-0.372-0.921c-0.001-0.365 0.123-0.672 0.372-0.921s0.556-0.372 0.921-0.372h14.448l-6.335-6.335c-0.259-0.259-0.383-0.56-0.372-0.905s0.145-0.646 0.405-0.905c0.259-0.237 0.56-0.361 0.905-0.372s0.646 0.113 0.905 0.372l8.533 8.533c0.129 0.129 0.221 0.269 0.275 0.42s0.081 0.312 0.080 0.485-0.028 0.334-0.080 0.485c-0.053 0.151-0.144 0.291-0.275 0.42l-8.533 8.533c-0.237 0.237-0.533 0.356-0.888 0.356s-0.662-0.119-0.922-0.356c-0.259-0.259-0.388-0.565-0.388-0.921s0.129-0.662 0.388-0.922l6.303-6.303z"></path>
</symbol>
<symbol id="icon-brackets" viewBox="0 0 50 32">
<path d="M0 31.626v-16.934l5.977-14.355h12.363l-3.867 13.828h7.441v17.461h-21.914zM27.48 31.626v-16.934l5.977-14.355h12.363l-3.867 13.828h7.441v17.461h-21.914z"></path>
</symbol>
<symbol id="icon-arrow-left" viewBox="0 0 31 32">
<path fill="#fff" style="fill: var(--color1, #fff)" d="M10.117 15.179h14.449c0.366 0 0.673 0.124 0.921 0.372s0.372 0.555 0.372 0.921c0.001 0.365-0.123 0.672-0.372 0.921s-0.556 0.372-0.921 0.372h-14.448l6.335 6.335c0.259 0.259 0.383 0.56 0.372 0.905s-0.145 0.646-0.405 0.905c-0.259 0.237-0.56 0.361-0.905 0.372s-0.646-0.113-0.905-0.372l-8.533-8.533c-0.129-0.129-0.221-0.269-0.275-0.42s-0.081-0.312-0.080-0.485c0.001-0.172 0.028-0.334 0.080-0.485s0.144-0.291 0.275-0.42l8.533-8.533c0.237-0.237 0.533-0.356 0.888-0.356s0.662 0.119 0.922 0.356c0.259 0.259 0.388 0.565 0.388 0.921s-0.129 0.662-0.388 0.922l-6.303 6.303z"></path>
</symbol>
</defs>
</svg>
