<svg aria-hidden="true" style="position: absolute; width: 0; height: 0; overflow: hidden;" version="1.1" xmlns="http://www.w3.org/2000/svg" xmlns:xlink="http://www.w3.org/1999/xlink">
<defs>
<symbol id="icon-utosia" viewBox="0 0 129 32">
<path fill="#fff" style="fill: var(--color1, #fff)" d="M124.107 2.948l3.893 26.104h-6.962l-0.339-4.692h-2.439l-0.404 4.692h-7.042l3.457-26.104h9.837zM120.506 19.733c-0.345-2.956-0.69-6.605-1.034-10.948-0.689 4.987-1.12 8.637-1.292 10.948h2.326z"></path>
<path fill="#fff" style="fill: var(--color1, #fff)" d="M109.966 2.948v26.104h-6.8v-26.104h6.8z"></path>
<path fill="#fff" style="fill: var(--color1, #fff)" d="M100.782 10.849h-6.316v-1.935c0-0.903-0.081-1.478-0.242-1.725s-0.431-0.371-0.808-0.371c-0.41 0-0.722 0.167-0.937 0.5-0.205 0.333-0.307 0.838-0.307 1.516 0 0.871 0.118 1.526 0.355 1.967 0.226 0.441 0.867 0.973 1.922 1.596 3.026 1.795 4.932 3.268 5.718 4.418s1.179 3.004 1.179 5.563c0 1.86-0.221 3.23-0.662 4.111-0.431 0.881-1.271 1.623-2.52 2.225-1.249 0.591-2.703 0.887-4.361 0.887-1.82 0-3.376-0.344-4.669-1.032-1.281-0.688-2.121-1.564-2.519-2.628s-0.598-2.574-0.598-4.531v-1.709h6.315v3.176c0 0.978 0.086 1.607 0.258 1.886 0.183 0.28 0.501 0.419 0.954 0.419s0.786-0.177 1.001-0.532c0.226-0.355 0.339-0.881 0.339-1.58 0-1.537-0.21-2.542-0.63-3.015-0.431-0.473-1.491-1.263-3.182-2.37-1.69-1.118-2.81-1.93-3.359-2.435s-1.007-1.204-1.374-2.096c-0.355-0.892-0.533-2.032-0.533-3.418 0-1.999 0.253-3.461 0.759-4.386 0.517-0.924 1.346-1.645 2.487-2.16 1.142-0.527 2.52-0.79 4.135-0.79 1.766 0 3.269 0.285 4.507 0.855 1.249 0.57 2.073 1.29 2.471 2.161 0.409 0.86 0.614 2.327 0.614 4.402v1.032z"></path>
<path fill="#fff" style="fill: var(--color1, #fff)" d="M84.153 18.233c0 2.623-0.064 4.482-0.194 5.579-0.118 1.086-0.506 2.080-1.163 2.983-0.646 0.903-1.523 1.596-2.633 2.080s-2.401 0.726-3.876 0.726c-1.4 0-2.66-0.226-3.78-0.677-1.109-0.462-2.003-1.15-2.681-2.064s-1.082-1.908-1.212-2.983c-0.129-1.075-0.194-2.956-0.194-5.643v-4.466c0-2.623 0.059-4.477 0.178-5.563 0.129-1.096 0.517-2.096 1.163-2.999 0.657-0.903 1.54-1.596 2.649-2.080s2.401-0.726 3.877-0.726c1.4 0 2.654 0.231 3.764 0.693 1.12 0.451 2.019 1.134 2.698 2.048s1.082 1.908 1.211 2.983c0.13 1.075 0.194 2.956 0.194 5.643v4.466zM77.353 9.656c0-1.215-0.070-1.989-0.21-2.322-0.129-0.344-0.404-0.516-0.824-0.516-0.355 0-0.63 0.14-0.824 0.419-0.183 0.269-0.275 1.075-0.275 2.419v12.189c0 1.516 0.059 2.451 0.178 2.805 0.129 0.355 0.42 0.532 0.872 0.532 0.463 0 0.759-0.204 0.888-0.613s0.194-1.381 0.194-2.918v-11.996z"></path>
<path fill="#fff" style="fill: var(--color1, #fff)" d="M67.394 2.948v5.224h-4.038v20.88h-6.8v-20.88h-4.022v-5.224h14.86z"></path>
<path fill="#fff" style="fill: var(--color1, #fff)" d="M51.395 2.948v17.445c0 1.978-0.065 3.37-0.194 4.176-0.129 0.795-0.512 1.618-1.147 2.467-0.635 0.839-1.475 1.478-2.52 1.919-1.034 0.43-2.256 0.645-3.666 0.645-1.561 0-2.94-0.258-4.135-0.774s-2.089-1.188-2.681-2.015c-0.592-0.828-0.942-1.698-1.050-2.612-0.108-0.924-0.162-2.859-0.162-5.804v-15.446h6.8v19.574c0 1.139 0.059 1.87 0.178 2.193 0.129 0.312 0.382 0.468 0.759 0.468 0.431 0 0.705-0.172 0.824-0.516 0.129-0.355 0.194-1.182 0.194-2.483v-19.235h6.8z"></path>
<path fill="#fff" style="fill: var(--color1, #fff)" d="M16 24c-4.418 0-8-3.582-8-8s3.582-8 8-8c4.418 0 8 3.582 8 8s-3.582 8-8 8zM16 32c8.836 0 16-7.164 16-16s-7.164-16-16-16c-8.837 0-16 7.163-16 16s7.163 16 16 16z"></path>
</symbol>
</defs>
</svg>
