<svg width="361" height="91" viewBox="0 0 361 91" fill="none" xmlns="http://www.w3.org/2000/svg">
<g clip-path="url(#clip0_5043_632)">
<path d="M349.052 8.98901L360.001 82.4055H340.421L339.467 69.2097H332.607L331.471 82.4055H311.664L321.386 8.98901H349.052ZM338.922 56.1948C337.953 47.8815 336.983 37.6179 336.014 25.4046C334.076 39.4318 332.864 49.6955 332.38 56.1948H338.922Z" fill="white"/>
<path d="M309.278 8.98901V82.4055H290.152V8.98901H309.278Z" fill="white"/>
<path d="M283.451 31.209H265.688V25.7673C265.688 23.228 265.461 21.6106 265.007 20.9153C264.552 20.2199 263.795 19.8723 262.735 19.8723C261.584 19.8723 260.706 20.3408 260.1 21.278C259.525 22.2152 259.237 23.6361 259.237 25.5406C259.237 27.9894 259.57 29.8335 260.236 31.0729C260.872 32.3124 262.674 33.8088 265.642 35.5623C274.153 40.6109 279.513 44.7525 281.724 47.9873C283.935 51.2219 285.041 56.437 285.041 63.632C285.041 68.8619 284.42 72.7162 283.178 75.1952C281.967 77.6743 279.604 79.7605 276.091 81.4534C272.578 83.1161 268.489 83.9473 263.825 83.9473C258.707 83.9473 254.33 82.9798 250.696 81.0452C247.092 79.1102 244.73 76.6465 243.609 73.6535C242.489 70.6606 241.928 66.413 241.928 60.9113V56.1044H259.691V65.0378C259.691 67.7887 259.933 69.5572 260.418 70.3433C260.933 71.1295 261.826 71.5223 263.099 71.5223C264.37 71.5223 265.309 71.0233 265.915 70.0256C266.551 69.028 266.869 67.547 266.869 65.5819C266.869 61.2587 266.278 58.4323 265.097 57.1021C263.886 55.7719 260.903 53.5498 256.148 50.4362C251.393 47.2921 248.243 45.0095 246.698 43.5887C245.154 42.1678 243.867 40.2028 242.837 37.6936C241.837 35.1844 241.338 31.9799 241.338 28.08C241.338 22.4571 242.049 18.3456 243.473 15.7457C244.927 13.1458 247.259 11.1203 250.469 9.66928C253.679 8.18792 257.556 7.44727 262.099 7.44727C267.066 7.44727 271.291 8.2484 274.774 9.85063C278.287 11.4529 280.604 13.4784 281.724 15.9271C282.875 18.3456 283.451 22.4722 283.451 28.3068V31.209Z" fill="white"/>
<path d="M236.679 51.9779C236.679 59.3543 236.498 64.5842 236.134 67.6676C235.801 70.7213 234.711 73.5176 232.863 76.057C231.046 78.5963 228.578 80.5462 225.458 81.9065C222.339 83.2669 218.704 83.9473 214.555 83.9473C210.618 83.9473 207.075 83.3123 203.925 82.0429C200.806 80.7428 198.292 78.8078 196.384 76.2383C194.476 73.6688 193.34 70.8721 192.977 67.849C192.613 64.8259 192.432 59.5357 192.432 51.9779V39.4167C192.432 32.0403 192.598 26.8254 192.931 23.7721C193.295 20.6885 194.385 17.877 196.202 15.3376C198.049 12.7982 200.533 10.8483 203.652 9.48788C206.772 8.12749 210.406 7.44727 214.555 7.44727C218.492 7.44727 222.021 8.09725 225.14 9.39716C228.29 10.6669 230.819 12.5866 232.727 15.1562C234.635 17.7259 235.771 20.5222 236.134 23.5454C236.498 26.5685 236.679 31.859 236.679 39.4167V51.9779ZM217.554 27.8533C217.554 24.4372 217.357 22.2605 216.963 21.3234C216.6 20.356 215.828 19.8723 214.646 19.8723C213.647 19.8723 212.875 20.2653 212.329 21.0513C211.814 21.8071 211.557 24.0744 211.557 27.8533V62.1353C211.557 66.3982 211.724 69.028 212.057 70.0256C212.42 71.0233 213.238 71.5223 214.51 71.5223C215.812 71.5223 216.645 70.9477 217.008 69.7993C217.372 68.6504 217.554 65.9144 217.554 61.5913V27.8533Z" fill="white"/>
<path d="M189.547 8.98901V23.6814H178.19V82.4055H159.064V23.6814H147.752V8.98901H189.547Z" fill="white"/>
<path d="M144.549 8.98901V58.0542C144.549 63.6167 144.367 67.5317 144.004 69.7992C143.64 72.0362 142.565 74.3487 140.778 76.7369C138.991 79.0953 136.629 80.894 133.691 82.1333C130.784 83.3424 127.346 83.9472 123.379 83.9472C118.988 83.9472 115.111 83.2218 111.749 81.7706C108.387 80.3193 105.874 78.4302 104.208 76.1024C102.542 73.7745 101.558 71.3256 101.255 68.7561C100.952 66.156 100.801 60.7146 100.801 52.431V8.98901H119.926V64.0401C119.926 67.2446 120.093 69.3002 120.426 70.2069C120.79 71.084 121.501 71.5223 122.561 71.5223C123.773 71.5223 124.545 71.0385 124.878 70.071C125.242 69.0734 125.423 66.7455 125.423 63.0879V8.98901H144.549Z" fill="white"/>
<path fill-rule="evenodd" clip-rule="evenodd" d="M45 68.1973C57.4263 68.1973 67.5 58.1236 67.5 45.6973C67.5 33.2709 57.4263 23.1973 45 23.1973C32.5736 23.1973 22.5 33.2709 22.5 45.6973C22.5 58.1236 32.5736 68.1973 45 68.1973ZM45 90.6973C69.8526 90.6973 90 70.5499 90 45.6973C90 20.8444 69.8526 0.697266 45 0.697266C20.1472 0.697266 0 20.8444 0 45.6973C0 70.5499 20.1472 90.6973 45 90.6973Z" fill="white"/>
</g>
<defs>
<clipPath id="clip0_5043_632">
<rect width="360.45" height="90" fill="white" transform="translate(0 0.697266)"/>
</clipPath>
</defs>
</svg>
